<svg xmlns="http://www.w3.org/2000/svg" xmlns:xlink="http://www.w3.org/1999/xlink" zoomAndPan="magnify" preserveAspectRatio="xMidYMid meet" version="1.0" viewBox="57.27 57.27 260.46 260.46" transform="matrix(1, 0, 0, 1, 0, 0)"><defs fill="#ffffff"><g/><clipPath id="69d8cc7b32" fill="#ffffff"><path d="M 60.265625 60.265625 L 314.515625 60.265625 L 314.515625 314.515625 L 60.265625 314.515625 Z M 60.265625 60.265625 " clip-rule="nonzero" fill="#ffffff"/></clipPath><clipPath id="315645a6bd" fill="#ffffff"><path d="M 187.496094 60.265625 C 117.230469 60.265625 60.265625 117.230469 60.265625 187.496094 C 60.265625 257.765625 117.230469 314.726562 187.496094 314.726562 C 257.765625 314.726562 314.726562 257.765625 314.726562 187.496094 C 314.726562 117.230469 257.765625 60.265625 187.496094 60.265625 Z M 187.496094 60.265625 " clip-rule="nonzero" fill="#ffffff"/></clipPath><clipPath id="8bff6e456d" fill="#ffffff"><path d="M 65.457031 65.457031 L 309.207031 65.457031 L 309.207031 309.207031 L 65.457031 309.207031 Z M 65.457031 65.457031 " clip-rule="nonzero" fill="#ffffff"/></clipPath><clipPath id="8065afb568" fill="#ffffff"><path d="M 187.496094 65.457031 C 120.09375 65.457031 65.457031 120.09375 65.457031 187.496094 C 65.457031 254.894531 120.09375 309.535156 187.496094 309.535156 C 254.894531 309.535156 309.535156 254.894531 309.535156 187.496094 C 309.535156 120.09375 254.894531 65.457031 187.496094 65.457031 Z M 187.496094 65.457031 " clip-rule="nonzero" fill="#ffffff"/></clipPath></defs><g clip-path="url(#60bab07b32)"><g clip-path="url(#315645a6bd)"><path stroke-linecap="butt" transform="matrix(0.75, 0, 0, 0.75, 60.266693, 60.266689)" fill="none" stroke-linejoin="miter" d="M 169.639212 -0.00141846 C 75.951706 -0.00141846 -0.00142446 75.951712 -0.00142446 169.639218 C -0.00142446 263.331932 75.951706 339.279854 169.639212 339.279854 C 263.331926 339.279854 339.279848 263.331932 339.279848 169.639218 C 339.279848 75.951712 263.331926 -0.00141846 169.639212 -0.00141846 Z M 169.639212 -0.00141846 " stroke="#ffffff" stroke-width="6" stroke-opacity="1" stroke-miterlimit="4"/></g></g><g clip-path="url(#8bff6e456d)"><g clip-path="url(#541bb8b568)"><path fill="#ffffff" d="M 185.992188 66.214844 L 185.234375 66.226562 L 185.210938 64.726562 L 185.96875 64.714844 Z M 184.488281 66.242188 L 183.734375 66.261719 L 183.695312 64.761719 L 184.449219 64.742188 Z M 182.992188 66.289062 L 182.242188 66.316406 L 182.179688 64.816406 L 182.933594 64.789062 Z M 181.5 66.351562 L 180.75 66.390625 L 180.671875 64.890625 L 181.421875 64.851562 Z M 180.011719 66.433594 L 179.265625 66.480469 L 179.167969 64.984375 L 179.917969 64.933594 Z M 178.527344 66.53125 L 177.785156 66.589844 L 177.671875 65.09375 L 178.414062 65.035156 Z M 177.050781 66.648438 L 176.308594 66.714844 L 176.175781 65.21875 L 176.917969 65.15625 Z M 175.578125 66.785156 L 174.835938 66.859375 L 174.683594 65.367188 L 175.429688 65.289062 Z M 174.089844 66.9375 L 173.339844 67.023438 L 173.171875 65.53125 L 173.921875 65.445312 Z M 172.601562 67.109375 L 171.851562 67.203125 L 171.667969 65.714844 L 172.414062 65.621094 Z M 171.117188 67.300781 L 170.371094 67.40625 L 170.164062 65.917969 L 170.910156 65.816406 Z M 169.636719 67.511719 L 168.894531 67.621094 L 168.671875 66.140625 L 169.414062 66.027344 Z M 168.164062 67.738281 L 167.425781 67.859375 L 167.183594 66.378906 L 167.921875 66.257812 Z M 166.695312 67.980469 L 165.960938 68.109375 L 165.699219 66.632812 L 166.4375 66.503906 Z M 165.234375 68.242188 L 164.5 68.382812 L 164.222656 66.90625 L 164.957031 66.769531 Z M 163.777344 68.523438 L 163.046875 68.667969 L 162.753906 67.199219 L 163.484375 67.050781 Z M 162.320312 68.820312 L 161.582031 68.980469 L 161.265625 67.511719 L 162.003906 67.355469 Z M 160.855469 69.140625 L 160.121094 69.308594 L 159.785156 67.84375 L 160.519531 67.675781 Z M 159.394531 69.476562 L 158.664062 69.652344 L 158.3125 68.195312 L 159.046875 68.019531 Z M 157.945312 69.832031 L 157.21875 70.015625 L 156.847656 68.5625 L 157.574219 68.375 Z M 156.5 70.203125 L 155.777344 70.394531 L 155.390625 68.945312 L 156.113281 68.75 Z M 155.0625 70.589844 L 154.34375 70.792969 L 153.9375 69.347656 L 154.660156 69.144531 Z M 153.632812 70.996094 L 152.917969 71.207031 L 152.492188 69.765625 L 153.210938 69.554688 Z M 152.210938 71.417969 L 151.496094 71.636719 L 151.058594 70.203125 L 151.769531 69.984375 Z M 150.789062 71.859375 L 150.070312 72.089844 L 149.613281 70.660156 L 150.328125 70.429688 Z M 149.363281 72.320312 L 148.648438 72.558594 L 148.175781 71.136719 L 148.886719 70.898438 Z M 147.945312 72.796875 L 147.238281 73.046875 L 146.746094 71.628906 L 147.453125 71.382812 Z M 146.539062 73.292969 L 145.832031 73.550781 L 145.320312 72.140625 L 146.027344 71.882812 Z M 145.136719 73.804688 L 144.4375 74.070312 L 143.910156 72.667969 L 144.609375 72.402344 Z M 143.746094 74.335938 L 143.046875 74.605469 L 142.503906 73.210938 L 143.199219 72.9375 Z M 142.363281 74.878906 L 141.667969 75.160156 L 141.105469 73.769531 L 141.800781 73.488281 Z M 140.984375 75.441406 L 140.296875 75.730469 L 139.71875 74.347656 L 140.40625 74.058594 Z M 139.613281 76.023438 L 138.921875 76.320312 L 138.324219 74.945312 L 139.015625 74.644531 Z M 138.242188 76.621094 L 137.558594 76.929688 L 136.941406 75.5625 L 137.628906 75.253906 Z M 136.882812 77.238281 L 136.199219 77.554688 L 135.570312 76.191406 L 136.25 75.875 Z M 135.53125 77.871094 L 134.851562 78.191406 L 134.207031 76.839844 L 134.882812 76.515625 Z M 134.1875 78.515625 L 133.515625 78.847656 L 132.851562 77.503906 L 133.523438 77.171875 Z M 132.851562 79.179688 L 132.1875 79.519531 L 131.503906 78.183594 L 132.171875 77.84375 Z M 131.527344 79.859375 L 130.867188 80.207031 L 130.167969 78.878906 L 130.832031 78.53125 Z M 130.214844 80.554688 L 129.554688 80.914062 L 128.84375 79.59375 L 129.5 79.238281 Z M 128.902344 81.269531 L 128.246094 81.636719 L 127.519531 80.324219 L 128.175781 79.960938 Z M 127.601562 82 L 126.949219 82.375 L 126.203125 81.074219 L 126.855469 80.699219 Z M 126.308594 82.746094 L 125.660156 83.128906 L 124.898438 81.835938 L 125.546875 81.453125 Z M 125.023438 83.507812 L 124.382812 83.898438 L 123.605469 82.613281 L 124.246094 82.226562 Z M 123.753906 84.285156 L 123.117188 84.683594 L 122.324219 83.410156 L 122.960938 83.011719 Z M 122.492188 85.078125 L 121.859375 85.480469 L 121.050781 84.21875 L 121.679688 83.8125 Z M 121.238281 85.882812 L 120.613281 86.296875 L 119.789062 85.042969 L 120.414062 84.632812 Z M 119.996094 86.707031 L 119.375 87.125 L 118.535156 85.882812 L 119.15625 85.464844 Z M 118.761719 87.546875 L 118.144531 87.972656 L 117.292969 86.742188 L 117.910156 86.3125 Z M 117.539062 88.398438 L 116.929688 88.835938 L 116.058594 87.613281 L 116.667969 87.175781 Z M 116.328125 89.269531 L 115.71875 89.710938 L 114.835938 88.5 L 115.441406 88.058594 Z M 115.125 90.152344 L 114.523438 90.601562 L 113.625 89.402344 L 114.226562 88.953125 Z M 113.933594 91.050781 L 113.339844 91.507812 L 112.425781 90.316406 L 113.019531 89.859375 Z M 112.753906 91.960938 L 112.167969 92.425781 L 111.238281 91.25 L 111.828125 90.785156 Z M 111.585938 92.886719 L 111.003906 93.359375 L 110.0625 92.191406 L 110.644531 91.722656 Z M 110.433594 93.828125 L 109.855469 94.308594 L 108.898438 93.152344 L 109.476562 92.675781 Z M 109.285156 94.785156 L 108.714844 95.269531 L 107.742188 94.128906 L 108.316406 93.640625 Z M 108.152344 95.753906 L 107.585938 96.246094 L 106.601562 95.117188 L 107.167969 94.621094 Z M 107.03125 96.738281 L 106.472656 97.238281 L 105.472656 96.117188 L 106.03125 95.617188 Z M 105.921875 97.734375 L 105.367188 98.238281 L 104.355469 97.132812 L 104.910156 96.625 Z M 104.824219 98.742188 L 104.277344 99.257812 L 103.25 98.164062 L 103.796875 97.648438 Z M 103.738281 99.769531 L 103.632812 99.867188 L 103.199219 100.285156 L 102.160156 99.203125 L 102.597656 98.785156 L 102.703125 98.683594 Z M 102.667969 100.804688 L 102.132812 101.328125 L 101.082031 100.261719 L 101.613281 99.734375 Z M 101.609375 101.851562 L 101.128906 102.332031 L 101.082031 102.382812 L 100.011719 101.332031 L 100.066406 101.277344 L 100.542969 100.796875 Z M 100.5625 102.914062 L 100.039062 103.453125 L 98.960938 102.410156 L 99.484375 101.871094 Z M 99.527344 103.988281 L 99.015625 104.535156 L 97.921875 103.503906 L 98.4375 102.960938 Z M 98.507812 105.078125 L 98 105.628906 L 96.898438 104.613281 L 97.40625 104.0625 Z M 97.5 106.175781 L 97 106.734375 L 95.882812 105.730469 L 96.386719 105.175781 Z M 96.507812 107.289062 L 96.011719 107.851562 L 94.886719 106.863281 L 95.378906 106.300781 Z M 95.527344 108.414062 L 95.039062 108.984375 L 93.902344 108.007812 L 94.386719 107.4375 Z M 94.5625 109.550781 L 94.082031 110.125 L 92.929688 109.164062 L 93.410156 108.589844 Z M 93.609375 110.699219 L 93.136719 111.28125 L 91.972656 110.332031 L 92.445312 109.75 Z M 92.671875 111.855469 L 92.207031 112.445312 L 91.03125 111.511719 L 91.496094 110.925781 Z M 91.75 113.027344 L 91.289062 113.621094 L 90.105469 112.703125 L 90.5625 112.109375 Z M 90.839844 114.207031 L 90.390625 114.808594 L 89.191406 113.902344 L 89.644531 113.304688 Z M 89.945312 115.402344 L 89.503906 116.007812 L 88.292969 115.117188 L 88.738281 114.511719 Z M 89.066406 116.605469 L 88.628906 117.214844 L 87.410156 116.34375 L 87.847656 115.730469 Z M 88.199219 117.820312 L 87.769531 118.4375 L 86.539062 117.578125 L 86.972656 116.960938 Z M 87.351562 119.046875 L 86.925781 119.667969 L 85.6875 118.824219 L 86.109375 118.203125 Z M 86.515625 120.285156 L 86.101562 120.90625 L 84.851562 120.078125 L 85.265625 119.457031 Z M 85.695312 121.527344 L 85.289062 122.15625 L 84.03125 121.34375 L 84.4375 120.714844 Z M 84.894531 122.78125 L 84.492188 123.417969 L 83.222656 122.617188 L 83.621094 121.984375 Z M 84.105469 124.046875 L 83.714844 124.6875 L 82.433594 123.90625 L 82.824219 123.265625 Z M 83.332031 125.320312 L 82.949219 125.964844 L 81.65625 125.199219 L 82.042969 124.554688 Z M 82.574219 126.605469 L 82.195312 127.257812 L 80.898438 126.507812 L 81.273438 125.855469 Z M 81.828125 127.902344 L 81.460938 128.558594 L 80.152344 127.824219 L 80.523438 127.167969 Z M 81.101562 129.207031 L 80.742188 129.867188 L 79.425781 129.148438 L 79.785156 128.488281 Z M 80.394531 130.515625 L 80.042969 131.179688 L 78.71875 130.476562 L 79.066406 129.816406 Z M 79.703125 131.835938 L 79.359375 132.5 L 78.027344 131.816406 L 78.367188 131.148438 Z M 79.027344 133.160156 L 78.691406 133.832031 L 77.347656 133.164062 L 77.683594 132.492188 Z M 78.367188 134.496094 L 78.039062 135.171875 L 76.6875 134.519531 L 77.015625 133.84375 Z M 77.722656 135.84375 L 77.402344 136.523438 L 76.042969 135.886719 L 76.363281 135.207031 Z M 77.09375 137.195312 L 76.785156 137.882812 L 75.417969 137.261719 L 75.726562 136.578125 Z M 76.480469 138.558594 L 76.179688 139.25 L 74.804688 138.648438 L 75.109375 137.957031 Z M 75.886719 139.929688 L 75.59375 140.621094 L 74.210938 140.039062 L 74.503906 139.347656 Z M 75.3125 141.304688 L 75.027344 141.996094 L 73.640625 141.429688 L 73.921875 140.734375 Z M 74.753906 142.679688 L 74.476562 143.378906 L 73.082031 142.828125 L 73.355469 142.132812 Z M 74.210938 144.066406 L 73.945312 144.769531 L 72.542969 144.234375 L 72.808594 143.535156 Z M 73.6875 145.460938 L 73.429688 146.167969 L 72.019531 145.652344 L 72.277344 144.945312 Z M 73.179688 146.863281 L 72.929688 147.574219 L 71.511719 147.074219 L 71.761719 146.367188 Z M 72.6875 148.273438 L 72.445312 148.988281 L 71.023438 148.507812 L 71.265625 147.792969 Z M 72.210938 149.691406 L 71.980469 150.410156 L 70.554688 149.945312 L 70.785156 149.230469 Z M 71.753906 151.117188 L 71.53125 151.832031 L 70.101562 151.390625 L 70.320312 150.671875 Z M 71.316406 152.539062 L 71.105469 153.253906 L 69.667969 152.828125 L 69.878906 152.113281 Z M 70.898438 153.964844 L 70.695312 154.683594 L 69.253906 154.273438 L 69.457031 153.554688 Z M 70.5 155.394531 L 70.300781 156.117188 L 68.855469 155.726562 L 69.050781 155.003906 Z M 70.113281 156.835938 L 69.925781 157.5625 L 68.472656 157.1875 L 68.660156 156.460938 Z M 69.746094 158.28125 L 69.570312 159.011719 L 68.113281 158.65625 L 68.289062 157.925781 Z M 69.398438 159.734375 L 69.226562 160.464844 L 67.765625 160.128906 L 67.933594 159.394531 Z M 69.066406 161.191406 L 68.90625 161.929688 L 67.4375 161.609375 L 67.597656 160.871094 Z M 68.75 162.660156 L 68.601562 163.394531 L 67.128906 163.09375 L 67.28125 162.355469 Z M 68.457031 164.113281 L 68.316406 164.847656 L 66.84375 164.5625 L 66.984375 163.832031 Z M 68.179688 165.570312 L 68.050781 166.308594 L 66.574219 166.042969 L 66.703125 165.308594 Z M 67.921875 167.035156 L 67.800781 167.773438 L 66.320312 167.527344 L 66.445312 166.789062 Z M 67.683594 168.503906 L 67.570312 169.246094 L 66.085938 169.015625 L 66.199219 168.273438 Z M 67.460938 169.980469 L 67.355469 170.722656 L 65.871094 170.511719 L 65.976562 169.769531 Z M 67.257812 171.460938 L 67.160156 172.207031 L 65.671875 172.015625 L 65.769531 171.265625 Z M 67.070312 172.945312 L 66.980469 173.695312 L 65.492188 173.523438 L 65.578125 172.773438 Z M 66.898438 174.4375 L 66.820312 175.1875 L 65.328125 175.03125 L 65.40625 174.28125 Z M 66.75 175.917969 L 66.683594 176.660156 L 65.1875 176.523438 L 65.257812 175.78125 Z M 66.621094 177.394531 L 66.5625 178.136719 L 65.066406 178.015625 L 65.125 177.273438 Z M 66.507812 178.871094 L 66.457031 179.617188 L 64.960938 179.515625 L 65.011719 178.769531 Z M 66.410156 180.355469 L 66.371094 181.105469 L 64.875 181.023438 L 64.914062 180.273438 Z M 66.335938 181.84375 L 66.300781 182.59375 L 64.804688 182.53125 L 64.835938 181.78125 Z M 66.273438 183.339844 L 66.253906 184.089844 L 64.753906 184.046875 L 64.777344 183.292969 Z M 66.234375 184.835938 L 66.21875 185.589844 L 64.71875 185.5625 L 64.734375 184.808594 Z M 66.210938 186.339844 L 66.207031 187.097656 L 64.707031 187.085938 L 64.710938 186.328125 Z M 66.207031 187.84375 L 66.210938 188.601562 L 64.710938 188.613281 L 64.707031 187.855469 Z M 66.21875 189.351562 L 66.234375 190.105469 L 64.734375 190.132812 L 64.71875 189.378906 Z M 66.25 190.851562 L 66.273438 191.605469 L 64.773438 191.648438 L 64.75 190.894531 Z M 66.300781 192.347656 L 66.332031 193.097656 L 64.832031 193.160156 L 64.800781 192.410156 Z M 66.367188 193.839844 L 66.410156 194.585938 L 64.910156 194.667969 L 64.871094 193.921875 Z M 66.453125 195.324219 L 66.503906 196.070312 L 65.007812 196.171875 L 64.957031 195.425781 Z M 66.558594 196.808594 L 66.617188 197.550781 L 65.121094 197.667969 L 65.0625 196.925781 Z M 66.679688 198.285156 L 66.746094 199.023438 L 65.253906 199.160156 L 65.183594 198.417969 Z M 66.816406 199.753906 L 66.894531 200.503906 L 65.402344 200.660156 L 65.324219 199.910156 Z M 66.976562 201.246094 L 67.0625 201.996094 L 65.574219 202.167969 L 65.488281 201.421875 Z M 67.152344 202.738281 L 67.25 203.484375 L 65.761719 203.675781 L 65.664062 202.925781 Z M 67.347656 204.21875 L 67.453125 204.964844 L 65.96875 205.175781 L 65.863281 204.429688 Z M 67.5625 205.699219 L 67.675781 206.4375 L 66.195312 206.667969 L 66.078125 205.925781 Z M 67.792969 207.171875 L 67.914062 207.910156 L 66.4375 208.15625 L 66.3125 207.417969 Z M 68.042969 208.636719 L 68.171875 209.371094 L 66.695312 209.636719 L 66.566406 208.902344 Z M 68.308594 210.097656 L 68.449219 210.828125 L 66.972656 211.109375 L 66.835938 210.378906 Z M 68.589844 211.550781 L 68.742188 212.285156 L 67.269531 212.585938 L 67.121094 211.851562 Z M 68.894531 213.015625 L 69.054688 213.75 L 67.589844 214.070312 L 67.429688 213.332031 Z M 69.21875 214.476562 L 69.386719 215.210938 L 67.925781 215.546875 L 67.753906 214.8125 Z M 69.558594 215.933594 L 69.734375 216.664062 L 68.277344 217.019531 L 68.101562 216.289062 Z M 69.914062 217.382812 L 70.101562 218.109375 L 68.648438 218.484375 L 68.460938 217.757812 Z M 70.289062 218.824219 L 70.484375 219.550781 L 69.039062 219.941406 L 68.84375 219.214844 Z M 70.683594 220.261719 L 70.886719 220.980469 L 69.445312 221.390625 L 69.238281 220.671875 Z M 71.09375 221.691406 L 71.304688 222.40625 L 69.867188 222.832031 L 69.65625 222.117188 Z M 71.519531 223.109375 L 71.742188 223.828125 L 70.308594 224.269531 L 70.085938 223.554688 Z M 71.964844 224.535156 L 72.199219 225.253906 L 70.769531 225.714844 L 70.539062 224.996094 Z M 72.429688 225.957031 L 72.671875 226.671875 L 71.25 227.152344 L 71.007812 226.4375 Z M 72.914062 227.371094 L 73.164062 228.082031 L 71.746094 228.578125 L 71.5 227.871094 Z M 73.414062 228.777344 L 73.671875 229.484375 L 72.261719 230 L 72.003906 229.292969 Z M 73.929688 230.179688 L 74.195312 230.878906 L 72.792969 231.410156 L 72.527344 230.710938 Z M 74.460938 231.566406 L 74.734375 232.265625 L 73.339844 232.8125 L 73.066406 232.117188 Z M 75.011719 232.949219 L 75.292969 233.644531 L 73.902344 234.210938 L 73.621094 233.515625 Z M 75.574219 234.324219 L 75.867188 235.015625 L 74.484375 235.597656 L 74.195312 234.90625 Z M 76.160156 235.699219 L 76.464844 236.386719 L 75.089844 236.988281 L 74.789062 236.296875 Z M 76.765625 237.066406 L 77.074219 237.75 L 75.707031 238.367188 L 75.398438 237.683594 Z M 77.382812 238.425781 L 77.703125 239.105469 L 76.34375 239.738281 L 76.023438 239.058594 Z M 78.019531 239.773438 L 78.34375 240.449219 L 76.996094 241.101562 L 76.667969 240.425781 Z M 78.671875 241.117188 L 79.003906 241.785156 L 77.664062 242.453125 L 77.328125 241.785156 Z M 79.339844 242.445312 L 79.679688 243.113281 L 78.347656 243.796875 L 78.003906 243.132812 Z M 80.023438 243.769531 L 80.371094 244.429688 L 79.046875 245.132812 L 78.695312 244.46875 Z M 80.722656 245.082031 L 81.082031 245.742188 L 79.761719 246.457031 L 79.402344 245.800781 Z M 81.441406 246.390625 L 81.808594 247.046875 L 80.5 247.78125 L 80.132812 247.125 Z M 82.175781 247.691406 L 82.550781 248.34375 L 81.25 249.09375 L 80.875 248.441406 Z M 82.925781 248.980469 L 83.308594 249.628906 L 82.015625 250.394531 L 81.632812 249.746094 Z M 83.6875 250.261719 L 84.078125 250.902344 L 82.800781 251.683594 L 82.410156 251.042969 Z M 84.46875 251.53125 L 84.867188 252.167969 L 83.597656 252.964844 L 83.199219 252.332031 Z M 85.265625 252.792969 L 85.671875 253.421875 L 84.410156 254.234375 L 84.003906 253.605469 Z M 86.074219 254.042969 L 86.488281 254.667969 L 85.238281 255.496094 L 84.824219 254.871094 Z M 86.902344 255.28125 L 87.324219 255.902344 L 86.082031 256.746094 L 85.660156 256.125 Z M 87.746094 256.511719 L 88.175781 257.128906 L 86.945312 257.988281 L 86.515625 257.371094 Z M 88.601562 257.734375 L 89.039062 258.34375 L 87.820312 259.21875 L 87.382812 258.609375 Z M 89.476562 258.945312 L 89.917969 259.550781 L 88.710938 260.4375 L 88.265625 259.832031 Z M 90.363281 260.144531 L 90.8125 260.742188 L 89.617188 261.644531 L 89.164062 261.046875 Z M 91.261719 261.332031 L 91.722656 261.925781 L 90.535156 262.84375 L 90.078125 262.25 Z M 92.179688 262.507812 L 92.644531 263.097656 L 91.46875 264.027344 L 91.003906 263.441406 Z M 93.109375 263.671875 L 93.582031 264.253906 L 92.417969 265.199219 L 91.945312 264.621094 Z M 94.054688 264.828125 L 94.066406 264.847656 L 94.53125 265.402344 L 93.378906 266.363281 L 92.914062 265.800781 L 92.898438 265.785156 Z M 95.011719 265.96875 L 95.207031 266.203125 L 95.496094 266.539062 L 94.359375 267.515625 L 94.066406 267.175781 L 93.871094 266.941406 Z M 95.984375 267.101562 L 96.390625 267.566406 L 96.476562 267.664062 L 95.351562 268.65625 L 95.261719 268.554688 L 94.855469 268.089844 Z M 96.96875 268.21875 L 97.40625 268.707031 L 97.46875 268.777344 L 96.355469 269.78125 L 96.289062 269.707031 L 95.851562 269.222656 Z M 97.96875 269.328125 L 98.351562 269.742188 L 98.476562 269.875 L 97.375 270.894531 L 97.246094 270.753906 L 96.863281 270.339844 Z M 98.980469 270.421875 L 99.496094 270.964844 L 98.40625 271.996094 L 97.890625 271.449219 Z M 100.007812 271.5 L 100.53125 272.042969 L 99.449219 273.082031 L 98.929688 272.542969 Z M 101.046875 272.570312 L 101.234375 272.761719 L 101.574219 273.101562 L 100.511719 274.160156 L 100.167969 273.816406 L 99.980469 273.625 Z M 102.101562 273.628906 L 102.238281 273.761719 L 102.632812 274.152344 L 101.582031 275.222656 L 101.183594 274.828125 L 101.046875 274.695312 Z M 103.164062 274.671875 L 103.707031 275.191406 L 102.667969 276.273438 L 102.125 275.75 Z M 104.242188 275.703125 L 104.523438 275.964844 L 104.789062 276.214844 L 103.765625 277.308594 L 103.496094 277.054688 L 103.214844 276.792969 Z M 105.335938 276.71875 L 105.464844 276.839844 L 105.886719 277.222656 L 104.875 278.332031 L 104.449219 277.941406 L 104.320312 277.824219 Z M 106.4375 277.722656 L 106.996094 278.222656 L 105.996094 279.339844 L 105.4375 278.839844 Z M 107.550781 278.710938 L 108.117188 279.203125 L 107.132812 280.335938 L 106.566406 279.84375 Z M 108.679688 279.6875 L 109.25 280.175781 L 108.277344 281.316406 L 107.707031 280.832031 Z M 109.820312 280.652344 L 110.394531 281.128906 L 109.4375 282.285156 L 108.859375 281.804688 Z M 110.96875 281.601562 L 111.550781 282.070312 L 110.609375 283.238281 L 110.027344 282.765625 Z M 112.128906 282.535156 L 112.71875 282.996094 L 111.789062 284.175781 L 111.199219 283.710938 Z M 113.304688 283.453125 L 113.898438 283.910156 L 112.984375 285.097656 L 112.386719 284.640625 Z M 114.488281 284.359375 L 115.085938 284.808594 L 114.1875 286.007812 L 113.585938 285.558594 Z M 115.683594 285.25 L 116.289062 285.691406 L 115.402344 286.902344 L 114.796875 286.460938 Z M 116.890625 286.125 L 117.5 286.5625 L 116.632812 287.785156 L 116.019531 287.347656 Z M 118.109375 286.988281 L 118.726562 287.417969 L 117.871094 288.648438 L 117.253906 288.222656 Z M 119.335938 287.835938 L 119.957031 288.257812 L 119.117188 289.5 L 118.496094 289.078125 Z M 120.574219 288.667969 L 121.199219 289.078125 L 120.375 290.332031 L 119.75 289.921875 Z M 121.820312 289.480469 L 122.453125 289.886719 L 121.640625 291.148438 L 121.011719 290.746094 Z M 123.078125 290.28125 L 123.714844 290.679688 L 122.917969 291.953125 L 122.285156 291.554688 Z M 124.34375 291.066406 L 124.984375 291.457031 L 124.207031 292.738281 L 123.566406 292.351562 Z M 125.621094 291.835938 L 126.269531 292.21875 L 125.507812 293.511719 L 124.859375 293.128906 Z M 126.910156 292.589844 L 127.5625 292.964844 L 126.816406 294.265625 L 126.164062 293.894531 Z M 128.207031 293.332031 L 128.863281 293.695312 L 128.132812 295.007812 L 127.476562 294.640625 Z M 129.515625 294.054688 L 130.171875 294.410156 L 129.460938 295.730469 L 128.800781 295.375 Z M 130.824219 294.757812 L 131.488281 295.105469 L 130.789062 296.433594 L 130.128906 296.085938 Z M 132.144531 295.445312 L 132.8125 295.785156 L 132.128906 297.125 L 131.464844 296.78125 Z M 133.472656 296.117188 L 134.144531 296.453125 L 133.480469 297.796875 L 132.808594 297.464844 Z M 134.8125 296.777344 L 135.488281 297.101562 L 134.839844 298.453125 L 134.164062 298.128906 Z M 136.160156 297.414062 L 136.839844 297.730469 L 136.207031 299.09375 L 135.527344 298.777344 Z M 137.515625 298.039062 L 138.199219 298.347656 L 137.585938 299.714844 L 136.902344 299.410156 Z M 138.878906 298.648438 L 139.570312 298.949219 L 138.972656 300.324219 L 138.28125 300.023438 Z M 140.253906 299.238281 L 140.941406 299.527344 L 140.363281 300.914062 L 139.675781 300.625 Z M 141.625 299.808594 L 142.320312 300.089844 L 141.753906 301.480469 L 141.0625 301.199219 Z M 143.003906 300.363281 L 143.703125 300.636719 L 143.15625 302.035156 L 142.460938 301.761719 Z M 144.394531 300.902344 L 145.09375 301.167969 L 144.566406 302.570312 L 143.863281 302.304688 Z M 145.789062 301.421875 L 146.496094 301.679688 L 145.984375 303.089844 L 145.277344 302.832031 Z M 147.195312 301.925781 L 147.902344 302.175781 L 147.410156 303.589844 L 146.699219 303.34375 Z M 148.605469 302.414062 L 149.320312 302.652344 L 148.84375 304.078125 L 148.128906 303.835938 Z M 150.027344 302.886719 L 150.742188 303.117188 L 150.285156 304.542969 L 149.566406 304.3125 Z M 151.453125 303.339844 L 152.167969 303.558594 L 151.726562 304.992188 L 151.011719 304.773438 Z M 152.871094 303.769531 L 153.589844 303.980469 L 153.164062 305.421875 L 152.449219 305.210938 Z M 154.296875 304.183594 L 155.019531 304.386719 L 154.613281 305.832031 L 153.894531 305.628906 Z M 155.730469 304.582031 L 156.457031 304.777344 L 156.070312 306.226562 L 155.34375 306.03125 Z M 157.171875 304.960938 L 157.898438 305.148438 L 157.53125 306.601562 L 156.804688 306.417969 Z M 158.621094 305.324219 L 159.351562 305.5 L 159 306.960938 L 158.269531 306.785156 Z M 160.074219 305.671875 L 160.808594 305.839844 L 160.476562 307.300781 L 159.742188 307.132812 Z M 161.535156 306 L 162.273438 306.15625 L 161.957031 307.625 L 161.21875 307.464844 Z M 163.003906 306.308594 L 163.734375 306.457031 L 163.4375 307.925781 L 162.707031 307.78125 Z M 164.457031 306.597656 L 165.1875 306.738281 L 164.910156 308.210938 L 164.175781 308.074219 Z M 165.914062 306.871094 L 166.648438 307 L 166.390625 308.476562 L 165.652344 308.347656 Z M 167.378906 307.125 L 168.117188 307.246094 L 167.875 308.722656 L 167.136719 308.601562 Z M 168.847656 307.359375 L 169.589844 307.472656 L 169.367188 308.953125 L 168.625 308.84375 Z M 170.324219 307.578125 L 171.070312 307.679688 L 170.863281 309.167969 L 170.121094 309.0625 Z M 171.808594 307.777344 L 172.554688 307.871094 L 172.367188 309.359375 L 171.621094 309.265625 Z M 173.292969 307.960938 L 174.046875 308.046875 L 173.875 309.535156 L 173.125 309.453125 Z M 174.789062 308.125 L 175.53125 308.199219 L 175.382812 309.695312 L 174.636719 309.617188 Z M 176.265625 308.269531 L 177.003906 308.335938 L 176.871094 309.832031 L 176.132812 309.765625 Z M 177.738281 308.398438 L 178.484375 308.453125 L 178.367188 309.949219 L 177.625 309.890625 Z M 179.21875 308.503906 L 179.964844 308.554688 L 179.871094 310.050781 L 179.125 310.003906 Z M 180.703125 308.597656 L 181.453125 308.636719 L 181.375 310.132812 L 180.625 310.09375 Z M 182.195312 308.667969 L 182.945312 308.699219 L 182.886719 310.199219 L 182.132812 310.167969 Z M 183.6875 308.726562 L 184.441406 308.746094 L 184.402344 310.246094 L 183.648438 310.222656 Z M 185.1875 308.761719 L 185.945312 308.773438 L 185.921875 310.273438 L 185.164062 310.261719 Z M 186.691406 308.78125 L 187.449219 308.785156 L 187.445312 310.285156 L 186.6875 310.28125 Z M 188.199219 308.78125 L 188.957031 308.773438 L 188.96875 310.273438 L 188.210938 310.28125 Z M 189.703125 308.765625 L 190.457031 308.746094 L 190.488281 310.246094 L 189.734375 310.261719 Z M 191.203125 308.726562 L 191.953125 308.703125 L 192.003906 310.203125 L 191.25 310.226562 Z M 192.695312 308.675781 L 193.449219 308.640625 L 193.515625 310.136719 L 192.765625 310.171875 Z M 194.1875 308.601562 L 194.933594 308.558594 L 195.019531 310.054688 L 194.273438 310.097656 Z M 195.671875 308.511719 L 196.417969 308.460938 L 196.523438 309.957031 L 195.777344 310.007812 Z M 197.152344 308.40625 L 197.894531 308.34375 L 198.019531 309.839844 L 197.277344 309.898438 Z M 198.628906 308.277344 L 199.371094 308.210938 L 199.511719 309.703125 L 198.769531 309.773438 Z M 200.101562 308.136719 L 200.855469 308.054688 L 201.015625 309.546875 L 200.261719 309.628906 Z M 201.597656 307.972656 L 202.347656 307.882812 L 202.523438 309.371094 L 201.773438 309.460938 Z M 203.085938 307.789062 L 203.832031 307.691406 L 204.027344 309.179688 L 203.28125 309.277344 Z M 204.566406 307.589844 L 205.3125 307.484375 L 205.523438 308.96875 L 204.78125 309.074219 Z M 206.042969 307.375 L 206.785156 307.257812 L 207.015625 308.738281 L 206.277344 308.855469 Z M 207.515625 307.140625 L 208.253906 307.015625 L 208.503906 308.492188 L 207.765625 308.617188 Z M 208.980469 306.886719 L 209.714844 306.753906 L 209.984375 308.230469 L 209.246094 308.363281 Z M 210.4375 306.617188 L 211.167969 306.472656 L 211.457031 307.945312 L 210.726562 308.089844 Z M 211.890625 306.328125 L 212.628906 306.175781 L 212.933594 307.644531 L 212.195312 307.796875 Z M 213.359375 306.019531 L 214.09375 305.859375 L 214.417969 307.324219 L 213.679688 307.484375 Z M 214.820312 305.691406 L 215.550781 305.523438 L 215.894531 306.984375 L 215.160156 307.152344 Z M 216.273438 305.347656 L 217.003906 305.167969 L 217.363281 306.625 L 216.632812 306.804688 Z M 217.722656 304.988281 L 218.449219 304.796875 L 218.824219 306.25 L 218.097656 306.4375 Z M 219.164062 304.609375 L 219.886719 304.410156 L 220.28125 305.859375 L 219.558594 306.054688 Z M 220.597656 304.210938 L 221.316406 304.003906 L 221.730469 305.449219 L 221.011719 305.652344 Z M 222.023438 303.796875 L 222.738281 303.582031 L 223.167969 305.019531 L 222.453125 305.234375 Z M 223.441406 303.367188 L 224.160156 303.144531 L 224.609375 304.574219 L 223.890625 304.800781 Z M 224.871094 302.914062 L 225.585938 302.683594 L 226.050781 304.105469 L 225.335938 304.339844 Z M 226.289062 302.445312 L 227.003906 302.203125 L 227.484375 303.625 L 226.773438 303.867188 Z M 227.703125 301.960938 L 228.410156 301.707031 L 228.914062 303.121094 L 228.203125 303.375 Z M 229.109375 301.457031 L 229.8125 301.195312 L 230.332031 302.605469 L 229.625 302.863281 Z M 230.503906 300.9375 L 231.203125 300.667969 L 231.742188 302.070312 L 231.039062 302.335938 Z M 231.894531 300.398438 L 232.589844 300.125 L 233.140625 301.519531 L 232.445312 301.792969 Z M 233.273438 299.847656 L 233.964844 299.5625 L 234.535156 300.949219 L 233.84375 301.234375 Z M 234.644531 299.277344 L 235.335938 298.984375 L 235.925781 300.363281 L 235.234375 300.65625 Z M 236.019531 298.6875 L 236.707031 298.382812 L 237.3125 299.757812 L 236.625 300.058594 Z M 237.386719 298.082031 L 238.070312 297.769531 L 238.691406 299.132812 L 238.007812 299.445312 Z M 238.742188 297.457031 L 239.421875 297.136719 L 240.058594 298.496094 L 239.378906 298.8125 Z M 240.089844 296.816406 L 240.765625 296.488281 L 241.417969 297.839844 L 240.746094 298.167969 Z M 241.429688 296.164062 L 242.097656 295.828125 L 242.769531 297.167969 L 242.101562 297.503906 Z M 242.757812 295.492188 L 243.421875 295.148438 L 244.113281 296.480469 L 243.445312 296.824219 Z M 244.078125 294.804688 L 244.738281 294.453125 L 245.441406 295.777344 L 244.78125 296.128906 Z M 245.386719 294.101562 L 246.046875 293.738281 L 246.769531 295.054688 L 246.109375 295.417969 Z M 246.695312 293.378906 L 247.351562 293.007812 L 248.089844 294.316406 L 247.433594 294.683594 Z M 247.996094 292.640625 L 248.644531 292.261719 L 249.398438 293.558594 L 248.75 293.9375 Z M 249.285156 291.886719 L 249.925781 291.503906 L 250.695312 292.789062 L 250.050781 293.175781 Z M 250.5625 291.117188 L 251.199219 290.726562 L 251.984375 292.003906 L 251.347656 292.394531 Z M 251.828125 290.335938 L 252.464844 289.933594 L 253.265625 291.203125 L 252.628906 291.601562 Z M 253.085938 289.535156 L 253.714844 289.128906 L 254.53125 290.386719 L 253.902344 290.792969 Z M 254.332031 288.722656 L 254.957031 288.304688 L 255.789062 289.554688 L 255.164062 289.96875 Z M 255.570312 287.890625 L 256.191406 287.46875 L 257.039062 288.707031 L 256.417969 289.128906 Z M 256.800781 287.042969 L 257.414062 286.613281 L 258.277344 287.839844 L 257.664062 288.273438 Z M 258.019531 286.183594 L 258.628906 285.746094 L 259.503906 286.960938 L 258.898438 287.402344 Z M 259.226562 285.308594 L 259.832031 284.863281 L 260.722656 286.066406 L 260.117188 286.515625 Z M 260.425781 284.414062 L 260.472656 284.378906 L 261.019531 283.964844 L 261.929688 285.160156 L 261.375 285.578125 L 261.328125 285.613281 Z M 261.609375 283.511719 L 262.199219 283.050781 L 263.121094 284.234375 L 262.53125 284.695312 Z M 262.785156 282.59375 L 262.925781 282.480469 L 263.367188 282.125 L 264.304688 283.296875 L 263.859375 283.65625 L 263.714844 283.769531 Z M 263.945312 281.660156 L 264.179688 281.46875 L 264.523438 281.1875 L 265.476562 282.347656 L 265.125 282.632812 L 264.894531 282.824219 Z M 265.09375 280.714844 L 265.671875 280.230469 L 266.632812 281.382812 L 266.058594 281.863281 Z M 266.234375 279.75 L 266.804688 279.261719 L 267.78125 280.398438 L 267.214844 280.890625 Z M 267.363281 278.777344 L 267.925781 278.28125 L 268.917969 279.40625 L 268.355469 279.902344 Z M 268.480469 277.785156 L 269.035156 277.285156 L 270.042969 278.398438 L 269.484375 278.898438 Z M 269.582031 276.785156 L 270.132812 276.273438 L 271.152344 277.375 L 270.601562 277.882812 Z M 270.675781 275.765625 L 271.21875 275.25 L 272.25 276.339844 L 271.707031 276.855469 Z M 271.753906 274.738281 L 272.09375 274.40625 L 272.289062 274.214844 L 273.339844 275.289062 L 273.140625 275.484375 L 272.796875 275.8125 Z M 272.820312 273.695312 L 273.058594 273.460938 L 273.351562 273.167969 L 274.410156 274.226562 L 273.878906 274.757812 Z M 273.875 272.640625 L 274.125 272.382812 L 274.398438 272.105469 L 275.46875 273.152344 L 275.195312 273.433594 L 274.945312 273.691406 Z M 274.914062 271.570312 L 275.429688 271.03125 L 276.515625 272.066406 L 275.996094 272.609375 Z M 275.941406 270.492188 L 276.453125 269.941406 L 277.546875 270.964844 L 277.035156 271.515625 Z M 276.953125 269.398438 L 277.460938 268.84375 L 278.570312 269.851562 L 278.0625 270.40625 Z M 277.953125 268.292969 L 278.429688 267.753906 L 278.453125 267.734375 L 279.574219 268.726562 L 279.554688 268.75 L 279.078125 269.289062 Z M 278.941406 267.175781 L 279.433594 266.605469 L 280.566406 267.589844 L 280.074219 268.15625 Z M 279.914062 266.042969 L 280.398438 265.46875 L 281.546875 266.4375 L 281.0625 267.011719 Z M 280.875 264.902344 L 281.351562 264.324219 L 282.507812 265.277344 L 282.03125 265.855469 Z M 281.820312 263.75 L 282.289062 263.164062 L 283.457031 264.105469 L 282.988281 264.6875 Z M 282.75 262.585938 L 283.214844 261.996094 L 284.394531 262.921875 L 283.929688 263.511719 Z M 283.667969 261.410156 L 284.121094 260.8125 L 285.3125 261.726562 L 284.859375 262.320312 Z M 284.570312 260.222656 L 285.015625 259.621094 L 286.21875 260.515625 L 285.773438 261.117188 Z M 285.457031 259.023438 L 285.898438 258.417969 L 287.113281 259.296875 L 286.671875 259.90625 Z M 286.332031 257.8125 L 286.765625 257.203125 L 287.988281 258.066406 L 287.554688 258.679688 Z M 287.1875 256.59375 L 287.617188 255.976562 L 288.851562 256.828125 L 288.421875 257.445312 Z M 288.03125 255.363281 L 288.449219 254.738281 L 289.695312 255.578125 L 289.277344 256.199219 Z M 288.859375 254.125 L 289.269531 253.496094 L 290.523438 254.316406 L 290.113281 254.945312 Z M 289.671875 252.875 L 290.074219 252.242188 L 291.339844 253.046875 L 290.9375 253.679688 Z M 290.46875 251.617188 L 290.863281 250.976562 L 292.136719 251.769531 L 291.742188 252.40625 Z M 291.25 250.347656 L 291.636719 249.703125 L 292.921875 250.476562 L 292.535156 251.121094 Z M 292.015625 249.066406 L 292.394531 248.417969 L 293.6875 249.175781 L 293.308594 249.824219 Z M 292.765625 247.777344 L 293.136719 247.125 L 294.441406 247.867188 L 294.070312 248.519531 Z M 293.5 246.476562 L 293.867188 245.816406 L 295.179688 246.542969 L 294.8125 247.203125 Z M 294.222656 245.167969 L 294.574219 244.507812 L 295.898438 245.21875 L 295.542969 245.878906 Z M 294.921875 243.855469 L 295.265625 243.191406 L 296.597656 243.886719 L 296.25 244.550781 Z M 295.605469 242.535156 L 295.945312 241.863281 L 297.28125 242.542969 L 296.945312 243.210938 Z M 296.273438 241.203125 L 296.605469 240.53125 L 297.953125 241.191406 L 297.621094 241.863281 Z M 296.925781 239.863281 L 297.25 239.183594 L 298.605469 239.828125 L 298.28125 240.507812 Z M 297.5625 238.511719 L 297.878906 237.832031 L 299.242188 238.457031 L 298.925781 239.140625 Z M 298.183594 237.15625 L 298.492188 236.46875 L 299.859375 237.078125 L 299.554688 237.765625 Z M 298.789062 235.789062 L 299.085938 235.097656 L 300.464844 235.691406 L 300.167969 236.378906 Z M 299.375 234.414062 L 299.664062 233.722656 L 301.046875 234.300781 L 300.761719 234.988281 Z M 299.941406 233.039062 L 300.222656 232.347656 L 301.613281 232.90625 L 301.332031 233.601562 Z M 300.492188 231.660156 L 300.761719 230.960938 L 302.160156 231.503906 L 301.890625 232.199219 Z M 301.027344 230.269531 L 301.289062 229.566406 L 302.695312 230.089844 L 302.429688 230.792969 Z M 301.542969 228.871094 L 301.796875 228.164062 L 303.207031 228.671875 L 302.953125 229.378906 Z M 302.042969 227.464844 L 302.289062 226.753906 L 303.707031 227.242188 L 303.460938 227.953125 Z M 302.527344 226.050781 L 302.765625 225.335938 L 304.1875 225.808594 L 303.949219 226.523438 Z M 302.992188 224.628906 L 303.222656 223.910156 L 304.652344 224.363281 L 304.421875 225.082031 Z M 303.441406 223.203125 L 303.660156 222.488281 L 305.09375 222.925781 L 304.875 223.640625 Z M 303.871094 221.78125 L 304.078125 221.066406 L 305.519531 221.484375 L 305.308594 222.203125 Z M 304.28125 220.355469 L 304.480469 219.632812 L 305.925781 220.035156 L 305.726562 220.753906 Z M 304.671875 218.917969 L 304.863281 218.195312 L 306.316406 218.578125 L 306.125 219.304688 Z M 305.050781 217.476562 L 305.230469 216.75 L 306.6875 217.113281 L 306.503906 217.84375 Z M 305.410156 216.027344 L 305.582031 215.296875 L 307.042969 215.644531 L 306.867188 216.375 Z M 305.75 214.574219 L 305.914062 213.835938 L 307.378906 214.167969 L 307.214844 214.902344 Z M 306.074219 213.109375 L 306.230469 212.371094 L 307.699219 212.683594 L 307.542969 213.421875 Z M 306.378906 211.644531 L 306.523438 210.914062 L 307.996094 211.207031 L 307.851562 211.9375 Z M 306.664062 210.191406 L 306.800781 209.457031 L 308.273438 209.730469 L 308.136719 210.464844 Z M 306.929688 208.730469 L 307.058594 207.996094 L 308.535156 208.25 L 308.410156 208.988281 Z M 307.179688 207.265625 L 307.300781 206.527344 L 308.78125 206.765625 L 308.660156 207.503906 Z M 307.414062 205.792969 L 307.523438 205.050781 L 309.007812 205.269531 L 308.894531 206.015625 Z M 307.625 204.316406 L 307.726562 203.570312 L 309.214844 203.773438 L 309.113281 204.519531 Z M 307.824219 202.832031 L 307.914062 202.085938 L 309.402344 202.269531 L 309.3125 203.015625 Z M 308 201.34375 L 308.085938 200.59375 L 309.574219 200.757812 L 309.492188 201.507812 Z M 308.160156 199.851562 L 308.234375 199.113281 L 309.726562 199.257812 L 309.65625 199.996094 Z M 308.300781 198.378906 L 308.367188 197.636719 L 309.859375 197.765625 L 309.796875 198.507812 Z M 308.425781 196.902344 L 308.480469 196.160156 L 309.976562 196.269531 L 309.921875 197.011719 Z M 308.527344 195.421875 L 308.574219 194.675781 L 310.070312 194.765625 L 310.027344 195.515625 Z M 308.617188 193.933594 L 308.652344 193.1875 L 310.152344 193.261719 L 310.113281 194.007812 Z M 308.683594 192.445312 L 308.710938 191.691406 L 310.210938 191.75 L 310.183594 192.5 Z M 308.734375 190.949219 L 308.753906 190.195312 L 310.253906 190.230469 L 310.234375 190.984375 Z M 308.769531 189.449219 L 308.777344 188.691406 L 310.277344 188.710938 L 310.269531 189.46875 Z M 308.78125 187.941406 L 308.785156 187.492188 L 308.78125 187.1875 L 310.28125 187.183594 L 310.285156 187.496094 L 310.28125 187.945312 Z M 308.777344 186.4375 L 308.769531 185.679688 L 310.269531 185.664062 L 310.277344 186.417969 Z M 308.757812 184.933594 L 308.738281 184.179688 L 310.238281 184.144531 L 310.257812 184.898438 Z M 308.71875 183.4375 L 308.691406 182.683594 L 310.1875 182.628906 L 310.214844 183.382812 Z M 308.660156 181.941406 L 308.621094 181.191406 L 310.121094 181.121094 L 310.15625 181.871094 Z M 308.582031 180.453125 L 308.539062 179.707031 L 310.035156 179.613281 L 310.078125 180.363281 Z M 308.488281 178.96875 L 308.433594 178.222656 L 309.929688 178.113281 L 309.984375 178.859375 Z M 308.375 177.488281 L 308.3125 176.746094 L 309.808594 176.621094 L 309.871094 177.363281 Z M 308.246094 176.015625 L 308.175781 175.273438 L 309.667969 175.128906 L 309.742188 175.871094 Z M 308.097656 174.535156 L 308.015625 173.785156 L 309.507812 173.621094 L 309.589844 174.371094 Z M 307.929688 173.042969 L 307.839844 172.292969 L 309.328125 172.113281 L 309.421875 172.859375 Z M 307.746094 171.554688 L 307.644531 170.808594 L 309.132812 170.609375 L 309.230469 171.355469 Z M 307.542969 170.074219 L 307.433594 169.332031 L 308.917969 169.113281 L 309.027344 169.855469 Z M 307.320312 168.601562 L 307.203125 167.859375 L 308.683594 167.625 L 308.800781 168.363281 Z M 307.082031 167.128906 L 306.953125 166.394531 L 308.433594 166.140625 L 308.558594 166.875 Z M 306.824219 165.667969 L 306.6875 164.933594 L 308.164062 164.660156 L 308.300781 165.394531 Z M 306.550781 164.210938 L 306.40625 163.480469 L 307.878906 163.1875 L 308.023438 163.917969 Z M 306.257812 162.753906 L 306.101562 162.015625 L 307.570312 161.707031 L 307.726562 162.445312 Z M 305.945312 161.289062 L 305.78125 160.550781 L 307.246094 160.226562 L 307.410156 160.960938 Z M 305.613281 159.828125 L 305.441406 159.097656 L 306.902344 158.75 L 307.074219 159.484375 Z M 305.265625 158.375 L 305.082031 157.644531 L 306.539062 157.28125 L 306.722656 158.011719 Z M 304.898438 156.929688 L 304.707031 156.203125 L 306.160156 155.820312 L 306.351562 156.546875 Z M 304.515625 155.488281 L 304.316406 154.765625 L 305.761719 154.367188 L 305.960938 155.089844 Z M 304.117188 154.058594 L 303.90625 153.339844 L 305.347656 152.921875 L 305.558594 153.640625 Z M 303.699219 152.632812 L 303.480469 151.917969 L 304.917969 151.484375 L 305.132812 152.195312 Z M 303.261719 151.210938 L 303.035156 150.492188 L 304.464844 150.039062 L 304.695312 150.757812 Z M 302.808594 149.785156 L 302.570312 149.070312 L 303.996094 148.601562 L 304.230469 149.316406 Z M 302.332031 148.367188 L 302.089844 147.65625 L 303.507812 147.167969 L 303.753906 147.878906 Z M 301.84375 146.957031 L 301.589844 146.25 L 303.003906 145.742188 L 303.253906 146.449219 Z M 301.335938 145.554688 L 301.074219 144.851562 L 302.480469 144.328125 L 302.742188 145.03125 Z M 300.8125 144.15625 L 300.542969 143.460938 L 301.941406 142.917969 L 302.210938 143.617188 Z M 300.273438 142.773438 L 299.992188 142.078125 L 301.386719 141.519531 L 301.664062 142.214844 Z M 299.714844 141.394531 L 299.429688 140.703125 L 300.8125 140.128906 L 301.101562 140.820312 Z M 299.140625 140.019531 L 298.84375 139.328125 L 300.222656 138.738281 L 300.519531 139.429688 Z M 298.546875 138.648438 L 298.242188 137.960938 L 299.613281 137.351562 L 299.917969 138.039062 Z M 297.9375 137.285156 L 297.621094 136.601562 L 298.984375 135.976562 L 299.300781 136.660156 Z M 297.308594 135.929688 L 296.988281 135.253906 L 298.34375 134.609375 L 298.664062 135.289062 Z M 296.664062 134.585938 L 296.335938 133.910156 L 297.683594 133.25 L 298.011719 133.925781 Z M 296.007812 133.246094 L 295.667969 132.578125 L 297.007812 131.902344 L 297.34375 132.570312 Z M 295.332031 131.921875 L 294.984375 131.257812 L 296.316406 130.5625 L 296.660156 131.226562 Z M 294.640625 130.601562 L 294.289062 129.945312 L 295.609375 129.234375 L 295.960938 129.894531 Z M 293.933594 129.292969 L 293.570312 128.632812 L 294.882812 127.910156 L 295.246094 128.566406 Z M 293.207031 127.988281 L 292.835938 127.332031 L 294.140625 126.59375 L 294.511719 127.246094 Z M 292.464844 126.691406 L 292.085938 126.042969 L 293.382812 125.285156 L 293.761719 125.933594 Z M 291.707031 125.40625 L 291.320312 124.761719 L 292.605469 123.988281 L 292.992188 124.632812 Z M 290.9375 124.128906 L 290.542969 123.492188 L 291.816406 122.703125 L 292.210938 123.339844 Z M 290.148438 122.863281 L 289.746094 122.230469 L 291.011719 121.425781 L 291.414062 122.058594 Z M 289.34375 121.609375 L 288.9375 120.980469 L 290.191406 120.160156 L 290.601562 120.789062 Z M 288.527344 120.363281 L 288.109375 119.742188 L 289.355469 118.90625 L 289.773438 119.527344 Z M 287.695312 119.128906 L 287.269531 118.511719 L 288.503906 117.660156 L 288.929688 118.277344 Z M 286.84375 117.902344 L 286.410156 117.289062 L 287.636719 116.421875 L 288.070312 117.035156 Z M 285.980469 116.683594 L 285.539062 116.078125 L 286.753906 115.195312 L 287.195312 115.804688 Z M 285.101562 115.480469 L 284.652344 114.878906 L 285.855469 113.984375 L 286.304688 114.585938 Z M 284.207031 114.285156 L 283.75 113.691406 L 284.945312 112.78125 L 285.398438 113.375 Z M 283.296875 113.105469 L 282.835938 112.511719 L 284.019531 111.589844 L 284.480469 112.179688 Z M 282.375 111.933594 L 282.199219 111.710938 L 281.90625 111.347656 L 283.078125 110.410156 L 283.371094 110.777344 L 283.546875 110.996094 Z M 281.441406 110.773438 L 280.964844 110.195312 L 282.121094 109.242188 L 282.597656 109.820312 Z M 280.488281 109.625 L 280.003906 109.050781 L 281.152344 108.085938 L 281.636719 108.65625 Z M 279.523438 108.488281 L 279.035156 107.917969 L 280.167969 106.9375 L 280.660156 107.507812 Z M 278.546875 107.363281 L 278.046875 106.800781 L 279.171875 105.804688 L 279.667969 106.367188 Z M 277.550781 106.25 L 277.210938 105.871094 L 277.050781 105.695312 L 278.15625 104.683594 L 278.320312 104.863281 L 278.664062 105.242188 Z M 276.546875 105.148438 L 276.34375 104.929688 L 276.035156 104.601562 L 277.132812 103.578125 L 277.445312 103.910156 L 277.644531 104.128906 Z M 275.527344 104.058594 L 275.117188 103.628906 L 275.011719 103.519531 L 276.09375 102.480469 L 276.203125 102.59375 L 276.613281 103.023438 Z M 274.496094 102.984375 L 273.96875 102.449219 L 275.042969 101.398438 L 275.566406 101.9375 Z M 273.449219 101.921875 L 272.917969 101.390625 L 273.976562 100.328125 L 274.507812 100.859375 Z M 272.390625 100.871094 L 271.910156 100.402344 L 271.855469 100.347656 L 272.898438 99.273438 L 272.957031 99.328125 L 273.4375 99.796875 Z M 271.320312 99.832031 L 270.777344 99.316406 L 271.808594 98.230469 L 272.351562 98.746094 Z M 270.234375 98.808594 L 269.929688 98.523438 L 269.6875 98.300781 L 270.707031 97.199219 L 270.949219 97.425781 L 271.257812 97.710938 Z M 269.140625 97.800781 L 268.597656 97.308594 L 268.585938 97.296875 L 269.589844 96.183594 L 269.601562 96.195312 L 270.144531 96.6875 Z M 268.03125 96.800781 L 267.46875 96.304688 L 268.460938 95.179688 L 269.023438 95.675781 Z M 266.910156 95.816406 L 266.339844 95.328125 L 267.320312 94.191406 L 267.890625 94.679688 Z M 265.777344 94.847656 L 265.203125 94.363281 L 266.167969 93.214844 L 266.742188 93.699219 Z M 264.632812 93.890625 L 264.050781 93.414062 L 265.003906 92.253906 L 265.582031 92.730469 Z M 263.476562 92.949219 L 262.890625 92.480469 L 263.828125 91.308594 L 264.414062 91.777344 Z M 262.308594 92.023438 L 261.71875 91.5625 L 262.640625 90.378906 L 263.234375 90.839844 Z M 261.132812 91.109375 L 260.535156 90.65625 L 261.441406 89.460938 L 262.039062 89.914062 Z M 259.941406 90.210938 L 259.339844 89.765625 L 260.234375 88.558594 L 260.835938 89.003906 Z M 258.742188 89.324219 L 258.132812 88.886719 L 259.011719 87.671875 L 259.621094 88.109375 Z M 257.527344 88.457031 L 256.914062 88.023438 L 257.777344 86.796875 L 258.390625 87.230469 Z M 256.304688 87.601562 L 255.6875 87.175781 L 256.535156 85.9375 L 257.152344 86.363281 Z M 255.070312 86.761719 L 254.449219 86.34375 L 255.28125 85.097656 L 255.90625 85.511719 Z M 253.832031 85.9375 L 253.203125 85.527344 L 254.019531 84.273438 L 254.648438 84.679688 Z M 252.582031 85.128906 L 251.945312 84.730469 L 252.75 83.460938 L 253.382812 83.863281 Z M 251.320312 84.335938 L 250.679688 83.941406 L 251.464844 82.664062 L 252.105469 83.058594 Z M 250.046875 83.558594 L 249.402344 83.171875 L 250.171875 81.886719 L 250.816406 82.273438 Z M 248.765625 82.796875 L 248.117188 82.417969 L 248.871094 81.121094 L 249.519531 81.5 Z M 247.472656 82.046875 L 246.820312 81.679688 L 247.558594 80.375 L 248.210938 80.742188 Z M 246.171875 81.316406 L 245.511719 80.953125 L 246.234375 79.640625 L 246.894531 80.003906 Z M 244.859375 80.601562 L 244.199219 80.25 L 244.90625 78.925781 L 245.566406 79.277344 Z M 243.546875 79.90625 L 242.882812 79.5625 L 243.570312 78.230469 L 244.234375 78.574219 Z M 242.222656 79.226562 L 241.554688 78.886719 L 242.226562 77.546875 L 242.894531 77.886719 Z M 240.890625 78.558594 L 240.214844 78.230469 L 240.871094 76.882812 L 241.546875 77.210938 Z M 239.546875 77.910156 L 238.867188 77.589844 L 239.507812 76.234375 L 240.1875 76.554688 Z M 238.195312 77.277344 L 237.511719 76.964844 L 238.136719 75.601562 L 238.820312 75.914062 Z M 236.835938 76.660156 L 236.148438 76.355469 L 236.753906 74.984375 L 237.441406 75.289062 Z M 235.464844 76.0625 L 234.773438 75.765625 L 235.363281 74.386719 L 236.054688 74.683594 Z M 234.09375 75.480469 L 233.402344 75.195312 L 233.972656 73.808594 L 234.664062 74.09375 Z M 232.71875 74.917969 L 232.023438 74.640625 L 232.578125 73.246094 L 233.273438 73.523438 Z M 231.332031 74.371094 L 230.632812 74.101562 L 231.171875 72.703125 L 231.871094 72.96875 Z M 229.941406 73.839844 L 229.238281 73.578125 L 229.757812 72.171875 L 230.460938 72.433594 Z M 228.542969 73.328125 L 227.835938 73.074219 L 228.335938 71.660156 L 229.046875 71.914062 Z M 227.132812 72.832031 L 226.421875 72.585938 L 226.910156 71.167969 L 227.621094 71.410156 Z M 225.71875 72.351562 L 225.003906 72.117188 L 225.472656 70.691406 L 226.1875 70.925781 Z M 224.292969 71.886719 L 223.574219 71.664062 L 224.027344 70.230469 L 224.746094 70.457031 Z M 222.871094 71.445312 L 222.15625 71.230469 L 222.589844 69.792969 L 223.304688 70.007812 Z M 221.449219 71.023438 L 220.730469 70.816406 L 221.144531 69.375 L 221.863281 69.582031 Z M 220.019531 70.617188 L 219.296875 70.417969 L 219.695312 68.972656 L 220.414062 69.167969 Z M 218.582031 70.226562 L 217.855469 70.035156 L 218.234375 68.585938 L 218.960938 68.773438 Z M 217.136719 69.855469 L 216.410156 69.671875 L 216.769531 68.21875 L 217.5 68.398438 Z M 215.6875 69.5 L 214.957031 69.328125 L 215.296875 67.867188 L 216.03125 68.039062 Z M 214.230469 69.160156 L 213.496094 69 L 213.820312 67.535156 L 214.554688 67.695312 Z M 212.765625 68.839844 L 212.027344 68.6875 L 212.332031 67.21875 L 213.074219 67.375 Z M 211.304688 68.542969 L 210.574219 68.398438 L 210.863281 66.925781 L 211.59375 67.070312 Z M 209.851562 68.261719 L 209.117188 68.125 L 209.386719 66.652344 L 210.121094 66.785156 Z M 208.390625 68 L 207.652344 67.871094 L 207.902344 66.394531 L 208.640625 66.519531 Z M 206.921875 67.753906 L 206.179688 67.636719 L 206.414062 66.152344 L 207.15625 66.269531 Z M 205.449219 67.523438 L 204.707031 67.417969 L 204.921875 65.933594 L 205.664062 66.039062 Z M 203.96875 67.316406 L 203.222656 67.214844 L 203.421875 65.730469 L 204.167969 65.828125 Z M 202.484375 67.121094 L 201.734375 67.03125 L 201.914062 65.542969 L 202.664062 65.632812 Z M 200.996094 66.949219 L 200.242188 66.867188 L 200.402344 65.375 L 201.15625 65.457031 Z M 199.507812 66.792969 L 198.765625 66.722656 L 198.910156 65.230469 L 199.648438 65.300781 Z M 198.035156 66.65625 L 197.292969 66.59375 L 197.414062 65.101562 L 198.15625 65.160156 Z M 196.554688 66.539062 L 195.8125 66.484375 L 195.917969 64.988281 L 196.664062 65.042969 Z M 195.074219 66.4375 L 194.324219 66.394531 L 194.414062 64.898438 L 195.160156 64.941406 Z M 193.585938 66.355469 L 192.835938 66.320312 L 192.90625 64.824219 L 193.65625 64.855469 Z M 192.09375 66.289062 L 191.34375 66.265625 L 191.394531 64.765625 L 192.144531 64.792969 Z M 190.597656 66.246094 L 189.84375 66.226562 L 189.875 64.726562 L 190.628906 64.746094 Z M 189.097656 66.214844 L 188.339844 66.207031 L 188.355469 64.707031 L 189.109375 64.714844 Z M 187.589844 66.207031 L 186.738281 66.207031 L 186.734375 64.707031 L 187.589844 64.707031 Z M 187.589844 66.207031 " fill-opacity="1" fill-rule="nonzero"/></g></g><g fill="#ffffff" fill-opacity="1"><g transform="translate(116.919284, 116.677824)"><g><path d="M 0.8125 -0.734375 L -5.375 -7.453125 L -2.375 -10.21875 C -1.6875 -10.851562 -0.988281 -11.191406 -0.28125 -11.234375 C 0.414062 -11.273438 1.015625 -11.023438 1.515625 -10.484375 C 1.804688 -10.171875 2 -9.816406 2.09375 -9.421875 C 2.1875 -9.035156 2.175781 -8.65625 2.0625 -8.28125 C 2.507812 -8.4375 2.945312 -8.457031 3.375 -8.34375 C 3.8125 -8.226562 4.191406 -7.992188 4.515625 -7.640625 C 4.867188 -7.253906 5.078125 -6.832031 5.140625 -6.375 C 5.203125 -5.914062 5.132812 -5.453125 4.9375 -4.984375 C 4.738281 -4.515625 4.414062 -4.070312 3.96875 -3.65625 Z M 1.203125 -3.328125 L 2.625 -4.640625 C 2.925781 -4.910156 3.09375 -5.191406 3.125 -5.484375 C 3.15625 -5.785156 3.054688 -6.066406 2.828125 -6.328125 C 2.578125 -6.585938 2.304688 -6.707031 2.015625 -6.6875 C 1.734375 -6.664062 1.441406 -6.519531 1.140625 -6.25 L -0.28125 -4.9375 Z M -1.359375 -6.109375 L -0.09375 -7.28125 C 0.207031 -7.550781 0.375 -7.828125 0.40625 -8.109375 C 0.4375 -8.390625 0.34375 -8.648438 0.125 -8.890625 C -0.09375 -9.128906 -0.335938 -9.238281 -0.609375 -9.21875 C -0.890625 -9.207031 -1.179688 -9.066406 -1.484375 -8.796875 L -2.75 -7.625 Z M -1.359375 -6.109375 " fill="#ffffff"/></g></g></g><g fill="#ffffff" fill-opacity="1"><g transform="translate(129.078869, 106.289943)"><g><path d="M 0.90625 -0.609375 L -4.15625 -8.21875 L 0.84375 -11.546875 L 1.8125 -10.09375 L -1.46875 -7.90625 L -0.421875 -6.328125 L 2.578125 -8.3125 L 3.546875 -6.859375 L 0.546875 -4.875 L 1.640625 -3.21875 L 5.03125 -5.484375 L 6.015625 -4.015625 Z M 0.90625 -0.609375 " fill="#ffffff"/></g></g></g><g fill="#ffffff" fill-opacity="1"><g transform="translate(141.786125, 98.461139)"><g><path d="M 3.96875 -1.625 C 3.257812 -1.300781 2.597656 -1.140625 1.984375 -1.140625 C 1.378906 -1.140625 0.847656 -1.285156 0.390625 -1.578125 C -0.0664062 -1.878906 -0.425781 -2.316406 -0.6875 -2.890625 L 1.15625 -3.734375 C 1.34375 -3.335938 1.617188 -3.09375 1.984375 -3 C 2.359375 -2.914062 2.773438 -2.976562 3.234375 -3.1875 C 3.628906 -3.363281 3.898438 -3.582031 4.046875 -3.84375 C 4.203125 -4.101562 4.21875 -4.367188 4.09375 -4.640625 C 3.957031 -4.929688 3.710938 -5.101562 3.359375 -5.15625 C 3.003906 -5.21875 2.503906 -5.175781 1.859375 -5.03125 C 0.785156 -4.789062 -0.078125 -4.769531 -0.734375 -4.96875 C -1.390625 -5.164062 -1.875 -5.601562 -2.1875 -6.28125 C -2.539062 -7.039062 -2.539062 -7.765625 -2.1875 -8.453125 C -1.832031 -9.148438 -1.175781 -9.71875 -0.21875 -10.15625 C 0.4375 -10.457031 1.050781 -10.609375 1.625 -10.609375 C 2.207031 -10.609375 2.722656 -10.46875 3.171875 -10.1875 C 3.628906 -9.90625 3.992188 -9.484375 4.265625 -8.921875 L 2.453125 -8.078125 C 2.273438 -8.453125 2.015625 -8.6875 1.671875 -8.78125 C 1.328125 -8.882812 0.9375 -8.835938 0.5 -8.640625 C 0.113281 -8.453125 -0.15625 -8.226562 -0.3125 -7.96875 C -0.476562 -7.707031 -0.5 -7.441406 -0.375 -7.171875 C -0.257812 -6.910156 -0.0351562 -6.75 0.296875 -6.6875 C 0.640625 -6.632812 1.15625 -6.679688 1.84375 -6.828125 C 3 -7.054688 3.898438 -7.070312 4.546875 -6.875 C 5.203125 -6.675781 5.679688 -6.25 5.984375 -5.59375 C 6.347656 -4.8125 6.347656 -4.066406 5.984375 -3.359375 C 5.617188 -2.660156 4.945312 -2.082031 3.96875 -1.625 Z M 3.96875 -1.625 " fill="#ffffff"/></g></g></g><g fill="#ffffff" fill-opacity="1"><g transform="translate(155.949083, 92.500111)"><g><path d="M 3.15625 -0.890625 L 1.1875 -7.8125 L -1.59375 -7.03125 L -2.125 -8.90625 L 5.453125 -11.046875 L 5.984375 -9.171875 L 3.1875 -8.390625 L 5.15625 -1.46875 Z M 3.15625 -0.890625 " fill="#ffffff"/></g></g></g><g fill="#ffffff" fill-opacity="1"><g transform="translate(171.26685, 88.831071)"><g/></g></g><g fill="#ffffff" fill-opacity="1"><g transform="translate(181.391432, 87.647966)"><g><path d="M 4.28125 0.125 C 3.507812 0.132812 2.84375 0.0195312 2.28125 -0.21875 C 1.726562 -0.46875 1.300781 -0.820312 1 -1.28125 C 0.695312 -1.75 0.539062 -2.296875 0.53125 -2.921875 L 2.5625 -2.9375 C 2.570312 -2.5 2.726562 -2.160156 3.03125 -1.921875 C 3.34375 -1.691406 3.75 -1.582031 4.25 -1.59375 C 4.6875 -1.601562 5.023438 -1.691406 5.265625 -1.859375 C 5.515625 -2.023438 5.640625 -2.257812 5.640625 -2.5625 C 5.628906 -2.882812 5.472656 -3.144531 5.171875 -3.34375 C 4.867188 -3.550781 4.390625 -3.71875 3.734375 -3.84375 C 2.660156 -4.050781 1.863281 -4.378906 1.34375 -4.828125 C 0.832031 -5.285156 0.570312 -5.882812 0.5625 -6.625 C 0.550781 -7.46875 0.84375 -8.128906 1.4375 -8.609375 C 2.039062 -9.097656 2.867188 -9.351562 3.921875 -9.375 C 4.640625 -9.382812 5.265625 -9.269531 5.796875 -9.03125 C 6.335938 -8.789062 6.753906 -8.445312 7.046875 -8 C 7.347656 -7.5625 7.503906 -7.03125 7.515625 -6.40625 L 5.515625 -6.375 C 5.503906 -6.789062 5.363281 -7.113281 5.09375 -7.34375 C 4.820312 -7.582031 4.445312 -7.695312 3.96875 -7.6875 C 3.539062 -7.675781 3.195312 -7.582031 2.9375 -7.40625 C 2.6875 -7.238281 2.566406 -7.003906 2.578125 -6.703125 C 2.578125 -6.421875 2.71875 -6.179688 3 -5.984375 C 3.289062 -5.796875 3.78125 -5.628906 4.46875 -5.484375 C 5.613281 -5.234375 6.441406 -4.882812 6.953125 -4.4375 C 7.472656 -3.988281 7.738281 -3.398438 7.75 -2.671875 C 7.757812 -1.816406 7.453125 -1.140625 6.828125 -0.640625 C 6.210938 -0.148438 5.363281 0.101562 4.28125 0.125 Z M 4.28125 0.125 " fill="#ffffff"/></g></g></g><g fill="#ffffff" fill-opacity="1"><g transform="translate(196.76762, 87.977399)"><g><path d="M 1.078125 0.15625 L 2.34375 -8.890625 L 8.296875 -8.0625 L 8.046875 -6.328125 L 4.140625 -6.875 L 3.890625 -5.015625 L 7.453125 -4.515625 L 7.203125 -2.78125 L 3.640625 -3.28125 L 3.375 -1.3125 L 7.421875 -0.75 L 7.171875 1 Z M 1.078125 0.15625 " fill="#ffffff"/></g></g></g><g fill="#ffffff" fill-opacity="1"><g transform="translate(211.480076, 90.578051)"><g><path d="M 1.046875 0.3125 L 3.640625 -8.453125 L 5.640625 -7.859375 L 3.59375 -0.953125 L 7.40625 0.171875 L 6.859375 2.03125 Z M 1.046875 0.3125 " fill="#ffffff"/></g></g></g><g fill="#ffffff" fill-opacity="1"><g transform="translate(225.280801, 95.212513)"><g><path d="M 0.984375 0.46875 L 4.84375 -7.8125 L 6.734375 -6.9375 L 3.6875 -0.40625 L 7.296875 1.265625 L 6.484375 3.015625 Z M 0.984375 0.46875 " fill="#ffffff"/></g></g></g><g fill="#ffffff" fill-opacity="1"><g transform="translate(238.24712, 101.816527)"><g><path d="M 0.90625 0.609375 L 5.953125 -7.015625 L 10.953125 -3.703125 L 9.984375 -2.234375 L 6.703125 -4.40625 L 5.65625 -2.828125 L 8.65625 -0.84375 L 7.703125 0.609375 L 4.703125 -1.375 L 3.59375 0.28125 L 7 2.53125 L 6.03125 4 Z M 0.90625 0.609375 " fill="#ffffff"/></g></g></g><g fill="#ffffff" fill-opacity="1"><g transform="translate(250.391466, 110.468079)"><g><path d="M 0.8125 0.734375 L 7 -6 L 9.875 -3.359375 C 10.382812 -2.878906 10.738281 -2.375 10.9375 -1.84375 C 11.144531 -1.3125 11.191406 -0.773438 11.078125 -0.234375 C 10.972656 0.304688 10.695312 0.816406 10.25 1.296875 C 9.800781 1.785156 9.300781 2.101562 8.75 2.25 C 8.195312 2.40625 7.632812 2.378906 7.0625 2.171875 L 6.3125 5.796875 L 4.546875 4.171875 L 5.265625 0.984375 L 4.265625 0.046875 L 2.34375 2.140625 Z M 5.421875 -1.265625 L 6.578125 -0.203125 C 6.960938 0.148438 7.335938 0.332031 7.703125 0.34375 C 8.066406 0.351562 8.394531 0.195312 8.6875 -0.125 C 8.988281 -0.457031 9.117188 -0.800781 9.078125 -1.15625 C 9.046875 -1.519531 8.835938 -1.878906 8.453125 -2.234375 L 7.296875 -3.296875 Z M 5.421875 -1.265625 " fill="#ffffff"/></g></g></g><g fill="#ffffff" fill-opacity="1"><g transform="translate(81.067252, 202.09859)"><g><path d="M 1.359375 7.1875 L 5.390625 6.421875 L 4.5 1.671875 L 0.46875 2.4375 L 0.25 1.3125 L 9.234375 -0.390625 L 9.453125 0.734375 L 5.578125 1.46875 L 6.46875 6.21875 L 10.34375 5.484375 L 10.5625 6.625 L 1.578125 8.328125 Z M 1.359375 7.1875 " fill="#ffffff"/></g></g></g><g fill="#ffffff" fill-opacity="1"><g transform="translate(84.98575, 219.418659)"><g><path d="M 1.765625 5.203125 C 1.441406 4.328125 1.34375 3.484375 1.46875 2.671875 C 1.601562 1.867188 1.929688 1.148438 2.453125 0.515625 C 2.984375 -0.109375 3.675781 -0.578125 4.53125 -0.890625 C 5.414062 -1.222656 6.257812 -1.328125 7.0625 -1.203125 C 7.863281 -1.078125 8.578125 -0.75 9.203125 -0.21875 C 9.828125 0.300781 10.300781 1 10.625 1.875 C 10.945312 2.738281 11.046875 3.570312 10.921875 4.375 C 10.796875 5.175781 10.472656 5.890625 9.953125 6.515625 C 9.429688 7.148438 8.726562 7.632812 7.84375 7.96875 C 6.988281 8.28125 6.15625 8.375 5.34375 8.25 C 4.539062 8.125 3.820312 7.800781 3.1875 7.28125 C 2.5625 6.757812 2.085938 6.066406 1.765625 5.203125 Z M 4.9375 0.21875 C 4.289062 0.457031 3.765625 0.8125 3.359375 1.28125 C 2.953125 1.757812 2.703125 2.300781 2.609375 2.90625 C 2.523438 3.507812 2.601562 4.140625 2.84375 4.796875 C 3.09375 5.441406 3.445312 5.960938 3.90625 6.359375 C 4.375 6.753906 4.914062 6.992188 5.53125 7.078125 C 6.15625 7.171875 6.789062 7.097656 7.4375 6.859375 C 8.113281 6.597656 8.644531 6.234375 9.03125 5.765625 C 9.425781 5.304688 9.675781 4.769531 9.78125 4.15625 C 9.882812 3.550781 9.8125 2.925781 9.5625 2.28125 C 9.320312 1.625 8.960938 1.097656 8.484375 0.703125 C 8.003906 0.316406 7.460938 0.078125 6.859375 -0.015625 C 6.253906 -0.117188 5.613281 -0.0390625 4.9375 0.21875 Z M 4.9375 0.21875 " fill="#ffffff"/></g></g></g><g fill="#ffffff" fill-opacity="1"><g transform="translate(92.267764, 236.929997)"><g><path d="M 0.6875 1.140625 L 8.53125 -3.5625 L 9.078125 -2.640625 L 6.265625 3.234375 L 12.75 3.484375 L 13.3125 4.40625 L 5.46875 9.109375 L 4.875 8.125 L 10.859375 4.53125 L 5.390625 4.265625 L 4.90625 3.46875 L 7.28125 -1.46875 L 1.28125 2.125 Z M 0.6875 1.140625 " fill="#ffffff"/></g></g></g><g fill="#ffffff" fill-opacity="1"><g transform="translate(103.190989, 253.535754)"><g><path d="M 0.859375 1.015625 L 7.8125 -4.921875 L 11.421875 -0.703125 L 10.59375 0 L 7.734375 -3.34375 L 5.546875 -1.46875 L 8.1875 1.625 L 7.390625 2.3125 L 4.75 -0.78125 L 2.421875 1.203125 L 5.375 4.640625 L 4.5625 5.328125 Z M 0.859375 1.015625 " fill="#ffffff"/></g></g></g><g fill="#ffffff" fill-opacity="1"><g transform="translate(113.831359, 265.237901)"><g><path d="M 1.015625 0.859375 L 6.890625 -6.140625 L 7.71875 -5.453125 L 6.984375 1 L 13.1875 -0.875 L 14.015625 -0.171875 L 8.140625 6.828125 L 7.265625 6.078125 L 11.75 0.71875 L 6.5 2.28125 L 5.78125 1.671875 L 6.40625 -3.765625 L 1.90625 1.59375 Z M 1.015625 0.859375 " fill="#ffffff"/></g></g></g><g fill="#ffffff" fill-opacity="1"><g transform="translate(129.59745, 277.384954)"><g><path d="M 0.1875 0.109375 L 8.03125 -5.90625 L 8.953125 -5.375 L 7.625 4.421875 L 6.578125 3.8125 L 6.875 1.578125 L 3.015625 -0.65625 L 1.25 0.734375 Z M 3.9375 -1.34375 L 7.03125 0.4375 L 7.6875 -4.25 Z M 3.9375 -1.34375 " fill="#ffffff"/></g></g></g><g fill="#ffffff" fill-opacity="1"><g transform="translate(144.561275, 285.34708)"><g><path d="M 1.234375 0.46875 L 4.46875 -8.078125 L 7.421875 -6.953125 C 8.304688 -6.617188 9.007812 -6.144531 9.53125 -5.53125 C 10.050781 -4.925781 10.367188 -4.234375 10.484375 -3.453125 C 10.609375 -2.671875 10.507812 -1.859375 10.1875 -1.015625 C 9.875 -0.179688 9.410156 0.484375 8.796875 0.984375 C 8.191406 1.492188 7.492188 1.804688 6.703125 1.921875 C 5.910156 2.035156 5.070312 1.925781 4.1875 1.59375 Z M 2.71875 -0.140625 L 4.578125 0.578125 C 5.234375 0.816406 5.859375 0.890625 6.453125 0.796875 C 7.046875 0.710938 7.570312 0.476562 8.03125 0.09375 C 8.5 -0.28125 8.851562 -0.789062 9.09375 -1.4375 C 9.34375 -2.09375 9.414062 -2.710938 9.3125 -3.296875 C 9.21875 -3.878906 8.972656 -4.398438 8.578125 -4.859375 C 8.179688 -5.328125 7.65625 -5.6875 7 -5.9375 L 5.171875 -6.640625 Z M 2.71875 -0.140625 " fill="#ffffff"/></g></g></g><g fill="#ffffff" fill-opacity="1"><g transform="translate(161.459195, 291.003702)"><g><path d="M 1.296875 0.265625 L 3.15625 -8.6875 L 8.59375 -7.546875 L 8.375 -6.484375 L 4.078125 -7.390625 L 3.5 -4.5625 L 7.46875 -3.734375 L 7.25 -2.703125 L 3.28125 -3.53125 L 2.65625 -0.546875 L 7.09375 0.390625 L 6.875 1.4375 Z M 1.296875 0.265625 " fill="#ffffff"/></g></g></g><g fill="#ffffff" fill-opacity="1"><g transform="translate(176.868649, 293.573825)"><g/></g></g><g fill="#ffffff" fill-opacity="1"><g transform="translate(187.87374, 294.135545)"><g><path d="M 4.390625 -0.03125 C 3.660156 0 3.019531 -0.09375 2.46875 -0.3125 C 1.914062 -0.539062 1.484375 -0.867188 1.171875 -1.296875 C 0.859375 -1.734375 0.6875 -2.25 0.65625 -2.84375 L 1.8125 -2.90625 C 1.84375 -2.320312 2.085938 -1.867188 2.546875 -1.546875 C 3.015625 -1.234375 3.609375 -1.09375 4.328125 -1.125 C 4.972656 -1.15625 5.476562 -1.304688 5.84375 -1.578125 C 6.207031 -1.847656 6.378906 -2.207031 6.359375 -2.65625 C 6.335938 -3.082031 6.140625 -3.414062 5.765625 -3.65625 C 5.390625 -3.894531 4.785156 -4.09375 3.953125 -4.25 C 2.816406 -4.46875 1.976562 -4.773438 1.4375 -5.171875 C 0.894531 -5.578125 0.609375 -6.128906 0.578125 -6.828125 C 0.535156 -7.597656 0.796875 -8.21875 1.359375 -8.6875 C 1.929688 -9.164062 2.71875 -9.425781 3.71875 -9.46875 C 4.738281 -9.519531 5.554688 -9.300781 6.171875 -8.8125 C 6.785156 -8.332031 7.117188 -7.65625 7.171875 -6.78125 L 6.0625 -6.734375 C 6.03125 -7.265625 5.804688 -7.675781 5.390625 -7.96875 C 4.984375 -8.269531 4.445312 -8.40625 3.78125 -8.375 C 3.125 -8.34375 2.613281 -8.191406 2.25 -7.921875 C 1.894531 -7.648438 1.726562 -7.300781 1.75 -6.875 C 1.769531 -6.5 1.957031 -6.191406 2.3125 -5.953125 C 2.664062 -5.710938 3.289062 -5.503906 4.1875 -5.328125 C 5.363281 -5.097656 6.207031 -4.78125 6.71875 -4.375 C 7.226562 -3.96875 7.5 -3.429688 7.53125 -2.765625 C 7.5625 -1.972656 7.296875 -1.328125 6.734375 -0.828125 C 6.171875 -0.335938 5.390625 -0.0703125 4.390625 -0.03125 Z M 4.390625 -0.03125 " fill="#ffffff"/></g></g></g><g fill="#ffffff" fill-opacity="1"><g transform="translate(204.198506, 292.828357)"><g><path d="M 5.390625 -0.984375 C 4.484375 -0.785156 3.640625 -0.8125 2.859375 -1.0625 C 2.078125 -1.3125 1.414062 -1.738281 0.875 -2.34375 C 0.332031 -2.957031 -0.03125 -3.71875 -0.21875 -4.625 C -0.414062 -5.539062 -0.390625 -6.382812 -0.140625 -7.15625 C 0.0976562 -7.9375 0.519531 -8.597656 1.125 -9.140625 C 1.738281 -9.679688 2.5 -10.050781 3.40625 -10.25 C 4.3125 -10.4375 5.15625 -10.410156 5.9375 -10.171875 C 6.71875 -9.929688 7.378906 -9.503906 7.921875 -8.890625 C 8.460938 -8.285156 8.832031 -7.523438 9.03125 -6.609375 C 9.21875 -5.703125 9.1875 -4.859375 8.9375 -4.078125 C 8.695312 -3.304688 8.269531 -2.644531 7.65625 -2.09375 C 7.050781 -1.539062 6.296875 -1.171875 5.390625 -0.984375 Z M 0.9375 -4.875 C 1.082031 -4.1875 1.359375 -3.609375 1.765625 -3.140625 C 2.171875 -2.671875 2.664062 -2.34375 3.25 -2.15625 C 3.84375 -1.976562 4.476562 -1.96875 5.15625 -2.125 C 5.84375 -2.269531 6.410156 -2.539062 6.859375 -2.9375 C 7.316406 -3.34375 7.632812 -3.84375 7.8125 -4.4375 C 8 -5.03125 8.019531 -5.671875 7.875 -6.359375 C 7.71875 -7.054688 7.4375 -7.632812 7.03125 -8.09375 C 6.625 -8.550781 6.128906 -8.875 5.546875 -9.0625 C 4.972656 -9.25 4.34375 -9.269531 3.65625 -9.125 C 2.976562 -8.96875 2.40625 -8.6875 1.9375 -8.28125 C 1.476562 -7.875 1.15625 -7.378906 0.96875 -6.796875 C 0.789062 -6.210938 0.78125 -5.570312 0.9375 -4.875 Z M 0.9375 -4.875 " fill="#ffffff"/></g></g></g><g fill="#ffffff" fill-opacity="1"><g transform="translate(222.515834, 288.149133)"><g><path d="M 4.46875 -1.625 C 3.445312 -1.21875 2.515625 -1.210938 1.671875 -1.609375 C 0.835938 -2.015625 0.195312 -2.78125 -0.25 -3.90625 L -2.28125 -8.9375 L -1.21875 -9.359375 L 0.78125 -4.40625 C 1.125 -3.539062 1.578125 -2.960938 2.140625 -2.671875 C 2.703125 -2.390625 3.335938 -2.390625 4.046875 -2.671875 C 5.523438 -3.265625 5.914062 -4.4375 5.21875 -6.1875 L 3.21875 -11.140625 L 4.28125 -11.5625 L 6.3125 -6.53125 C 6.757812 -5.40625 6.820312 -4.40625 6.5 -3.53125 C 6.175781 -2.664062 5.5 -2.03125 4.46875 -1.625 Z M 4.46875 -1.625 " fill="#ffffff"/></g></g></g><g fill="#ffffff" fill-opacity="1"><g transform="translate(238.428937, 281.068044)"><g><path d="M 1.140625 -0.6875 L -3.5625 -8.53125 L -0.578125 -10.328125 C -0.0351562 -10.648438 0.492188 -10.828125 1.015625 -10.859375 C 1.546875 -10.890625 2.035156 -10.785156 2.484375 -10.546875 C 2.929688 -10.304688 3.3125 -9.925781 3.625 -9.40625 C 4 -8.769531 4.148438 -8.144531 4.078125 -7.53125 C 4.003906 -6.925781 3.722656 -6.382812 3.234375 -5.90625 L 6.953125 -4.171875 L 5.765625 -3.453125 L 2.15625 -5.125 L 0.4375 -4.09375 L 2.125 -1.28125 Z M -0.125 -5.03125 L 1.765625 -6.15625 C 2.335938 -6.5 2.695312 -6.898438 2.84375 -7.359375 C 2.988281 -7.816406 2.914062 -8.296875 2.625 -8.796875 C 2.320312 -9.296875 1.929688 -9.585938 1.453125 -9.671875 C 0.972656 -9.765625 0.445312 -9.640625 -0.125 -9.296875 L -2.015625 -8.171875 Z M -0.125 -5.03125 " fill="#ffffff"/></g></g></g><g fill="#ffffff" fill-opacity="1"><g transform="translate(252.517406, 271.908212)"><g><path d="M 1.015625 -0.859375 L -4.890625 -7.828125 L -2.484375 -9.859375 C -1.765625 -10.472656 -1.007812 -10.859375 -0.21875 -11.015625 C 0.5625 -11.171875 1.320312 -11.113281 2.0625 -10.84375 C 2.800781 -10.570312 3.460938 -10.09375 4.046875 -9.40625 C 4.628906 -8.71875 4.992188 -7.984375 5.140625 -7.203125 C 5.285156 -6.429688 5.210938 -5.671875 4.921875 -4.921875 C 4.640625 -4.179688 4.140625 -3.503906 3.421875 -2.890625 Z M 1.1875 -2.4375 L 2.71875 -3.71875 C 3.25 -4.175781 3.617188 -4.6875 3.828125 -5.25 C 4.046875 -5.8125 4.097656 -6.382812 3.984375 -6.96875 C 3.878906 -7.5625 3.601562 -8.125 3.15625 -8.65625 C 2.707031 -9.1875 2.195312 -9.546875 1.625 -9.734375 C 1.0625 -9.929688 0.488281 -9.96875 -0.09375 -9.84375 C -0.6875 -9.726562 -1.253906 -9.445312 -1.796875 -9 L -3.296875 -7.734375 Z M 1.1875 -2.4375 " fill="#ffffff"/></g></g></g><g fill="#ffffff" fill-opacity="1"><g transform="translate(265.746901, 259.864595)"><g><path d="M 3.640625 -4.09375 C 3.046875 -3.382812 2.363281 -2.882812 1.59375 -2.59375 C 0.832031 -2.3125 0.0507812 -2.242188 -0.75 -2.390625 C -1.5625 -2.546875 -2.316406 -2.914062 -3.015625 -3.5 C -3.734375 -4.101562 -4.234375 -4.785156 -4.515625 -5.546875 C -4.804688 -6.304688 -4.878906 -7.085938 -4.734375 -7.890625 C -4.585938 -8.703125 -4.21875 -9.460938 -3.625 -10.171875 C -3.03125 -10.890625 -2.347656 -11.390625 -1.578125 -11.671875 C -0.816406 -11.953125 -0.0351562 -12.019531 0.765625 -11.875 C 1.566406 -11.738281 2.328125 -11.367188 3.046875 -10.765625 C 3.742188 -10.179688 4.238281 -9.503906 4.53125 -8.734375 C 4.820312 -7.960938 4.894531 -7.175781 4.75 -6.375 C 4.601562 -5.570312 4.234375 -4.8125 3.640625 -4.09375 Z M -2.25 -4.40625 C -1.71875 -3.957031 -1.148438 -3.675781 -0.546875 -3.5625 C 0.0546875 -3.445312 0.644531 -3.492188 1.21875 -3.703125 C 1.800781 -3.921875 2.316406 -4.296875 2.765625 -4.828125 C 3.210938 -5.367188 3.488281 -5.941406 3.59375 -6.546875 C 3.695312 -7.148438 3.640625 -7.738281 3.421875 -8.3125 C 3.203125 -8.894531 2.828125 -9.410156 2.296875 -9.859375 C 1.742188 -10.316406 1.164062 -10.597656 0.5625 -10.703125 C -0.0390625 -10.816406 -0.628906 -10.769531 -1.203125 -10.5625 C -1.785156 -10.351562 -2.300781 -9.976562 -2.75 -9.4375 C -3.195312 -8.90625 -3.472656 -8.332031 -3.578125 -7.71875 C -3.679688 -7.113281 -3.625 -6.523438 -3.40625 -5.953125 C -3.1875 -5.378906 -2.800781 -4.863281 -2.25 -4.40625 Z M -2.25 -4.40625 " fill="#ffffff"/></g></g></g><g fill="#ffffff" fill-opacity="1"><g transform="translate(277.293428, 244.893216)"><g><path d="M 2.53125 -4.03125 C 1.96875 -3.070312 1.234375 -2.492188 0.328125 -2.296875 C -0.578125 -2.097656 -1.554688 -2.304688 -2.609375 -2.921875 L -7.296875 -5.640625 L -6.71875 -6.640625 L -2.09375 -3.953125 C -1.289062 -3.484375 -0.582031 -3.304688 0.03125 -3.421875 C 0.65625 -3.535156 1.160156 -3.925781 1.546875 -4.59375 C 2.347656 -5.96875 1.9375 -7.128906 0.3125 -8.078125 L -4.3125 -10.765625 L -3.75 -11.75 L 0.9375 -9.03125 C 1.988281 -8.414062 2.65625 -7.664062 2.9375 -6.78125 C 3.21875 -5.90625 3.082031 -4.988281 2.53125 -4.03125 Z M 2.53125 -4.03125 " fill="#ffffff"/></g></g></g><g fill="#ffffff" fill-opacity="1"><g transform="translate(285.522572, 229.493602)"><g><path d="M 2.046875 -5 C 1.804688 -4.363281 1.476562 -3.820312 1.0625 -3.375 C 0.644531 -2.9375 0.171875 -2.59375 -0.359375 -2.34375 C -0.898438 -2.101562 -1.484375 -1.972656 -2.109375 -1.953125 C -2.734375 -1.941406 -3.367188 -2.054688 -4.015625 -2.296875 C -4.648438 -2.535156 -5.195312 -2.863281 -5.65625 -3.28125 C -6.113281 -3.695312 -6.46875 -4.171875 -6.71875 -4.703125 C -6.976562 -5.242188 -7.117188 -5.816406 -7.140625 -6.421875 C -7.160156 -7.035156 -7.054688 -7.65625 -6.828125 -8.28125 C -6.578125 -8.9375 -6.234375 -9.492188 -5.796875 -9.953125 C -5.359375 -10.421875 -4.851562 -10.78125 -4.28125 -11.03125 C -3.707031 -11.28125 -3.101562 -11.390625 -2.46875 -11.359375 L -2.90625 -10.1875 C -3.5625 -10.113281 -4.132812 -9.882812 -4.625 -9.5 C -5.125 -9.113281 -5.5 -8.59375 -5.75 -7.9375 C -5.988281 -7.289062 -6.054688 -6.664062 -5.953125 -6.0625 C -5.847656 -5.46875 -5.59375 -4.9375 -5.1875 -4.46875 C -4.789062 -4.007812 -4.265625 -3.65625 -3.609375 -3.40625 C -2.953125 -3.164062 -2.316406 -3.085938 -1.703125 -3.171875 C -1.085938 -3.265625 -0.546875 -3.503906 -0.078125 -3.890625 C 0.390625 -4.273438 0.738281 -4.785156 0.96875 -5.421875 C 1.1875 -6.003906 1.265625 -6.5625 1.203125 -7.09375 C 1.148438 -7.625 0.972656 -8.101562 0.671875 -8.53125 C 0.367188 -8.96875 -0.03125 -9.320312 -0.53125 -9.59375 L -1.828125 -6.109375 L -2.859375 -6.5 L -1.125 -11.140625 C -0.175781 -10.804688 0.585938 -10.320312 1.171875 -9.6875 C 1.753906 -9.0625 2.125 -8.34375 2.28125 -7.53125 C 2.445312 -6.71875 2.367188 -5.875 2.046875 -5 Z M 2.046875 -5 " fill="#ffffff"/></g></g></g><g fill="#ffffff" fill-opacity="1"><g transform="translate(291.388533, 211.724972)"><g><path d="M 1.359375 -7.1875 L -2.671875 -7.953125 L -3.5625 -3.203125 L 0.46875 -2.4375 L 0.25 -1.3125 L -8.734375 -3.015625 L -8.515625 -4.140625 L -4.640625 -3.40625 L -3.75 -8.15625 L -7.625 -8.890625 L -7.40625 -10.03125 L 1.578125 -8.328125 Z M 1.359375 -7.1875 " fill="#ffffff"/></g></g></g><path stroke-linecap="round" transform="matrix(0.53033, -0.53033, 0.53033, 0.53033, 147.739346, 226.331251)" fill="none" stroke-linejoin="miter" d="M 0.999995 1.001467 L 146.420933 1.001467 " stroke="#ffffff" stroke-width="2" stroke-opacity="1" stroke-miterlimit="4"/><path stroke-linecap="round" transform="matrix(-0.53033, -0.53033, 0.53033, -0.53033, 226.096514, 226.700875)" fill="none" stroke-linejoin="miter" d="M 0.998536 1.00069 L 146.419474 1.00069 " stroke="#ffffff" stroke-width="2" stroke-opacity="1" stroke-miterlimit="4"/><g fill="#121212" fill-opacity="1"><g transform="translate(116.164338, 196.143531)"><g><path d="M 30.46875 -1.40625 C 30.582031 -1.019531 30.640625 -0.515625 30.640625 0.109375 C 29.597656 0.0351562 28.234375 0 26.546875 0 C 24.921875 0 23.53125 0.0351562 22.375 0.109375 C 22.375 -0.441406 22.441406 -0.9375 22.578125 -1.375 C 23.441406 -1.457031 24.019531 -1.644531 24.3125 -1.9375 C 24.613281 -2.238281 24.765625 -2.789062 24.765625 -3.59375 C 24.765625 -4.050781 24.726562 -4.617188 24.65625 -5.296875 L 23.421875 -17.03125 L 16.34375 0.0625 C 15.957031 0.226562 15.492188 0.3125 14.953125 0.3125 L 6.984375 -17 L 5.890625 -6.015625 C 5.816406 -5.335938 5.78125 -4.742188 5.78125 -4.234375 C 5.78125 -3.191406 5.957031 -2.46875 6.3125 -2.0625 C 6.664062 -1.664062 7.265625 -1.4375 8.109375 -1.375 C 8.222656 -0.976562 8.28125 -0.484375 8.28125 0.109375 C 7.1875 0.0351562 5.96875 0 4.625 0 C 3.269531 0 2.128906 0.0351562 1.203125 0.109375 C 1.203125 -0.484375 1.257812 -0.976562 1.375 -1.375 C 2.007812 -1.4375 2.5 -1.59375 2.84375 -1.84375 C 3.1875 -2.09375 3.453125 -2.550781 3.640625 -3.21875 C 3.835938 -3.894531 4.003906 -4.929688 4.140625 -6.328125 L 5.234375 -18.5 C 5.253906 -18.707031 5.265625 -18.984375 5.265625 -19.328125 C 5.265625 -20.210938 5.082031 -20.835938 4.71875 -21.203125 C 4.351562 -21.566406 3.757812 -21.75 2.9375 -21.75 C 2.820312 -22.113281 2.765625 -22.601562 2.765625 -23.21875 C 3.453125 -23.15625 4.320312 -23.125 5.375 -23.125 C 6.21875 -23.125 7.082031 -23.15625 7.96875 -23.21875 L 16.515625 -4.3125 L 23.96875 -23.21875 C 24.75 -23.15625 25.640625 -23.125 26.640625 -23.125 C 27.460938 -23.125 28.332031 -23.15625 29.25 -23.21875 C 29.25 -22.675781 29.191406 -22.1875 29.078125 -21.75 C 28.296875 -21.75 27.707031 -21.554688 27.3125 -21.171875 C 26.914062 -20.785156 26.71875 -20.113281 26.71875 -19.15625 C 26.71875 -18.789062 26.726562 -18.503906 26.75 -18.296875 L 27.984375 -5.75 C 28.097656 -4.601562 28.242188 -3.726562 28.421875 -3.125 C 28.609375 -2.519531 28.859375 -2.09375 29.171875 -1.84375 C 29.492188 -1.59375 29.925781 -1.445312 30.46875 -1.40625 Z M 30.46875 -1.40625 " fill="#ffffff"/></g></g></g><g fill="#121212" fill-opacity="1"><g transform="translate(226.891278, 196.143531)"><g><path d="M 20.734375 -23.125 C 21.960938 -23.125 23.039062 -23.15625 23.96875 -23.21875 C 23.96875 -22.65625 23.914062 -22.164062 23.8125 -21.75 C 23.28125 -21.75 22.867188 -21.597656 22.578125 -21.296875 C 22.296875 -21.003906 22.09375 -20.507812 21.96875 -19.8125 C 21.84375 -19.125 21.78125 -18.148438 21.78125 -16.890625 L 21.78125 0 C 21.414062 0.132812 20.925781 0.203125 20.3125 0.203125 L 6.1875 -18.234375 L 6.1875 -6.390625 C 6.1875 -5.066406 6.253906 -4.050781 6.390625 -3.34375 C 6.523438 -2.644531 6.765625 -2.140625 7.109375 -1.828125 C 7.453125 -1.523438 7.929688 -1.375 8.546875 -1.375 C 8.660156 -1.03125 8.71875 -0.535156 8.71875 0.109375 C 7.695312 0.0351562 6.566406 0 5.328125 0 C 3.921875 0 2.785156 0.0351562 1.921875 0.109375 C 1.921875 -0.535156 1.976562 -1.03125 2.09375 -1.375 C 2.707031 -1.375 3.179688 -1.523438 3.515625 -1.828125 C 3.859375 -2.140625 4.097656 -2.644531 4.234375 -3.34375 C 4.378906 -4.050781 4.453125 -5.066406 4.453125 -6.390625 L 4.453125 -20.515625 L 4.3125 -20.6875 C 3.988281 -21.082031 3.679688 -21.347656 3.390625 -21.484375 C 3.109375 -21.617188 2.675781 -21.707031 2.09375 -21.75 C 1.976562 -22.164062 1.921875 -22.65625 1.921875 -23.21875 C 2.597656 -23.15625 3.441406 -23.125 4.453125 -23.125 C 5.359375 -23.125 6.117188 -23.15625 6.734375 -23.21875 L 20.046875 -5.578125 L 20.046875 -16.890625 C 20.046875 -18.171875 19.972656 -19.148438 19.828125 -19.828125 C 19.691406 -20.515625 19.453125 -21.003906 19.109375 -21.296875 C 18.773438 -21.597656 18.300781 -21.75 17.6875 -21.75 C 17.570312 -22.414062 17.515625 -22.90625 17.515625 -23.21875 C 18.492188 -23.15625 19.566406 -23.125 20.734375 -23.125 Z M 20.734375 -23.125 " fill="#ffffff"/></g></g></g></svg>